<?xml version="1.0" encoding="UTF-8"?>
<!DOCTYPE svg PUBLIC "-//W3C//DTD SVG 1.1//EN" "http://www.w3.org/Graphics/SVG/1.1/DTD/svg11.dtd">
<!-- Creator: CorelDRAW Home & Student X8 -->
<svg xmlns="http://www.w3.org/2000/svg" xml:space="preserve" width="159.324mm" height="130.417mm" version="1.1" style="shape-rendering:geometricPrecision; text-rendering:geometricPrecision; image-rendering:optimizeQuality; fill-rule:evenodd; clip-rule:evenodd"
viewBox="0 0 1146 938"
 xmlns:xlink="http://www.w3.org/1999/xlink">
 <defs>
  <style type="text/css">
   <![CDATA[
    .str0 {stroke:#669999;stroke-width:7.19278}
    .fil1 {fill:#669999}
    .fil2 {fill:#75A1A1}
    .fil3 {fill:#CFE3E3}
    .fil5 {fill:#DADCDE}
    .fil4 {fill:#FAFDFD}
    .fil0 {fill:white}
   ]]>
  </style>
 </defs>
 <g id="Capa_x0020_1">
  <metadata id="CorelCorpID_0Corel-Layer"/>
  <polygon class="fil0" points="93,15 464,15 485,33 485,258 517,292 485,339 485,534 127,538 93,504 93,454 19,450 16,284 93,272 "/>
  <g id="_582741360">
   <path class="fil1" d="M106 267c29,1 58,0 87,0 29,0 46,14 46,43l0 116c0,30 -16,44 -46,44 -29,0 -58,-1 -87,0 -10,74 47,72 63,50 6,-9 6,-20 9,-29 16,-4 261,-1 300,-2l0 -110c-10,12 -16,31 -27,44 -4,6 -36,23 -44,27 -30,18 -19,10 -57,10 -20,0 -54,4 -69,-3 -1,-11 0,-14 10,-14 18,-2 53,2 77,-1l2 -43c-30,-4 -87,7 -89,-8 -4,-20 66,-5 85,-10 6,-1 25,-39 27,-44 -21,0 -41,0 -61,0 -11,0 -58,6 -51,-12 4,-11 47,-5 59,-5 21,0 42,0 63,0l26 -44 -156 0c-5,-2 -10,-6 -6,-13 4,-8 28,-4 38,-4l134 0c14,-25 15,-33 34,-48 8,-6 6,-6 6,-31l-1 -8c-99,-1 -88,12 -88,-94 0,-41 36,-27 87,-30 0,-19 -18,-30 -39,-30l-344 0c10,23 12,23 12,54 -1,49 -3,159 0,195zm-103 -162c15,4 65,1 85,2l0 160c-32,1 -60,-6 -77,16 -12,16 -7,62 -7,86 0,24 -5,69 7,85 19,25 44,10 77,16 3,42 -5,81 71,80l301 0c23,0 50,4 68,-7 10,-7 32,-31 23,-50 -11,-9 -39,-1 -55,-5 -1,-31 0,-63 0,-94 0,-51 -4,-41 17,-77 9,-15 31,-47 31,-66 1,-31 -21,-43 -48,-48l0 -30c41,-8 45,9 45,-62 0,-15 2,-38 -3,-50 -8,-15 -22,-11 -42,-13 -16,-58 -52,-47 -115,-47 -55,0 -109,0 -163,0 -54,0 -110,-2 -163,0 -24,1 -42,14 -50,31 -6,15 -7,60 -2,73zm448 -7c0,14 -2,27 3,37 13,2 18,-5 26,-11 20,-14 15,-18 -11,-36 -12,-8 -18,-4 -18,10zm-60 279c14,8 37,25 51,30l63 -111 -50 -31 -64 112zm-370 32c3,-5 14,-18 18,-25 6,-9 12,-21 24,-22 20,0 28,34 45,48 8,-13 41,-67 55,-68 14,-1 20,12 32,30 5,8 21,32 26,36 1,-16 2,-101 -1,-110 -6,-16 -24,-13 -43,-13l-112 0c-18,0 -37,-3 -43,13 -2,7 -2,99 -1,111zm365 7c15,4 14,7 23,13 4,-2 6,-3 9,-4l8 -8 -39 -22 -1 21z"/>
   <path class="fil2" d="M167 154l165 0c15,0 15,-7 10,-17l-12 -1 -163 0c-20,0 -22,18 0,18z"/>
   <path class="fil2" d="M167 92l165 0c17,0 21,-17 -2,-17l-163 0c-21,0 -22,17 0,17z"/>
   <path class="fil2" d="M167 214l165 0c18,0 20,-16 -2,-16l-163 0c-21,0 -22,16 0,16z"/>
   <path class="fil2" d="M102 310c-23,10 -10,42 13,34 22,-8 10,-44 -13,-34z"/>
  </g>
  <g id="_582710040">
   <path class="fil3" d="M706 593c-41,41 -88,113 -134,146 -16,12 159,158 251,158 48,0 76,-13 108,-36 22,-17 78,-65 115,-100 5,-5 30,-31 28,-38 1,-12 -33,-90 -105,-129 -57,34 -124,68 -216,31l-47 -32z"/>
   <path class="fil1" d="M1053 242c-7,-23 0,-44 -21,-85 -15,-28 -27,-45 -44,-63 -30,-30 -90,-62 -155,-61 -81,2 -163,49 -197,123 -24,50 -14,53 -22,86 5,21 -31,23 -44,37 -14,94 -8,132 52,151 1,27 1,47 10,64 112,213 299,181 394,18 11,-19 2,-18 12,-80 35,-13 88,-73 52,-164 -5,-12 -27,-4 -40,-15 1,-4 2,-8 3,-11z"/>
   <path class="fil4" d="M646 264l44 0c2,21 -1,35 -4,54 -5,36 12,149 42,186l29 28c49,40 120,33 166,-7 28,-23 31,-27 49,-64 37,-79 18,-177 26,-199l22 -1c0,-7 0,-7 -2,-13 -23,1 -43,7 -55,-13 -14,-22 -16,-19 -39,-31 -6,13 -22,25 -36,35 -13,9 -36,16 -55,16 -60,1 -85,-46 -92,-51 -62,16 0,51 -96,43l1 17z"/>
   <path class="fil3" d="M646 264c1,44 0,87 1,131 1,51 3,64 25,104 48,88 165,133 261,70 61,-41 87,-99 86,-174 0,-45 -1,-90 1,-134l-22 1c-8,22 11,120 -26,199 -18,37 -21,41 -49,64 -46,40 -117,47 -166,7l-29 -28c-30,-37 -47,-150 -42,-186 3,-19 6,-33 4,-54l-44 0z"/>
   <path class="fil4" d="M648 216c10,3 22,6 33,6 14,-30 12,-25 47,-46 0,-38 -9,-39 12,-84 -27,8 -65,53 -78,82 -4,10 -14,30 -14,42z"/>
   <path class="fil0 str0" d="M730 301c-48,15 -29,90 20,76 17,-5 35,-26 29,-48 -5,-20 -24,-36 -49,-28z"/>
   <path class="fil0 str0" d="M920 299c-49,11 -35,89 16,79 43,-10 39,-91 -16,-79z"/>
   <path class="fil4" d="M1002 218c-10,-11 -13,-29 -17,-44 -4,-18 -14,-33 -10,-44 -8,-12 -33,-32 -46,-39 0,6 10,27 12,39 4,24 -2,29 -3,48 57,22 37,54 64,40z"/>
   <path class="fil1" d="M783 518c12,3 84,8 96,0 7,-4 11,-16 3,-23 -8,-8 -48,-3 -62,-3 -26,0 -47,-5 -37,26z"/>
   <path class="fil4" d="M1054 348c2,3 2,-3 2,3 4,-7 14,-11 23,-13 -1,-32 8,-59 -26,-63l1 73z"/>
   <path class="fil4" d="M587 333c7,3 15,8 20,11l5 -5 1 -64c-12,0 -23,7 -25,16 -2,6 -1,33 -1,42z"/>
   <path class="fil5" d="M1002 218l12 0c6,-20 -19,-61 -30,-78 -1,-1 -4,-5 -4,-5l-5 -5c-4,11 6,26 10,44 4,15 7,33 17,44z"/>
   <path class="fil5" d="M612 339l-5 5c-5,-3 -13,-8 -20,-11 1,34 -6,60 25,67l0 -61z"/>
   <path class="fil5" d="M1054 348l-1 51c12,-2 24,-7 25,-17 2,-8 1,-34 1,-44 -9,2 -19,6 -23,13 0,-6 0,0 -2,-3z"/>
   <path class="fil0" d="M822 168c-16,0 -30,-14 -30,-30 0,-17 14,-30 30,-30 17,0 30,13 30,30 0,16 -13,30 -30,30zm0 5c-19,0 -35,-16 -35,-35 0,-20 16,-35 35,-35 20,0 35,15 35,35 0,19 -15,35 -35,35z"/>
   <circle class="fil0" cx="822" cy="138" r="20"/>
   <path class="fil0" d="M823 242c-10,0 -18,-8 -18,-18 0,-10 8,-17 18,-17 9,0 17,7 17,17 0,10 -8,18 -17,18zm0 -3c-9,0 -15,-7 -15,-15 0,-8 6,-15 15,-15 8,0 15,7 15,15 0,8 -7,15 -15,15z"/>
   <circle class="fil0" cx="823" cy="224" r="8"/>
   <rect class="fil0" x="818" y="171" width="9.16216" height="37.9843"/>
   <rect class="fil0" transform="matrix(6.02321E-14 -2.27424 1.10239 2.91964E-14 752.556 143.414)" width="4.02867" height="34.4563" rx="1" ry="1"/>
   <path class="fil0" d="M879 91c1,1 1,2 1,3l0 81c0,3 -2,5 -4,5l0 0c-3,0 -5,-2 -5,-5l0 -80 -15 -18 -23 0 0 -10 26 0 20 24 0 0z"/>
   <path class="fil0" d="M817 88c-8,0 -15,-6 -15,-15 0,-8 7,-15 15,-15 8,0 15,7 15,15 0,9 -7,15 -15,15zm0 3c-10,0 -18,-8 -18,-18 0,-9 8,-17 18,-17 10,0 18,8 18,17 0,10 -8,18 -18,18z"/>
   <circle class="fil0" cx="817" cy="73" r="8"/>
   <path class="fil0" d="M907 91c1,1 1,2 1,3l0 81c0,3 -2,5 -4,5l0 0c-3,0 -5,-2 -5,-5l0 -80 -15 -18 -23 0 0 -10 26 0 20 24 0 0z"/>
   <path class="fil0" d="M774 113c-7,0 -12,-5 -12,-12 0,-7 5,-12 12,-12 6,0 12,5 12,12 0,7 -6,12 -12,12zm0 2c-8,0 -14,-6 -14,-14 0,-8 6,-14 14,-14 7,0 14,6 14,14 0,8 -7,14 -14,14z"/>
   <circle class="fil0" cx="774" cy="101" r="6"/>
   <path class="fil0" d="M752 103l0 -3c0,-2 1,-3 3,-3l5 0c2,0 0,1 0,3l0 3c0,2 2,3 0,3l-5 0c-2,0 -3,-1 -3,-3z"/>
   <path class="fil1" d="M677 562c-52,50 -106,123 -164,164 -20,14 206,212 322,212 61,0 67,-25 107,-53 29,-20 122,-90 168,-132 8,-7 39,-37 36,-47 -8,-22 -144,-166 -161,-160 0,25 -110,86 -132,87 -51,1 -88,-2 -132,-37 -9,-7 -15,-30 -44,-34l0 0zm29 31c-41,41 -88,113 -134,146 -16,12 159,158 251,158 48,0 76,-13 108,-36 22,-17 78,-65 115,-100 5,-5 30,-31 28,-38 1,-12 -33,-90 -105,-129 -57,34 -124,68 -216,31l-47 -32z"/>
   <path class="fil1" d="M722 301c-31,15 -19,90 13,76 11,-5 22,-26 19,-48 -4,-20 -16,-36 -32,-28z"/>
   <path class="fil1" d="M909 299c-33,11 -23,89 11,79 29,-10 26,-91 -11,-79z"/>
  </g>
 </g>
</svg>
