<?xml version="1.0" encoding="UTF-8"?>
<!DOCTYPE svg PUBLIC "-//W3C//DTD SVG 1.1//EN" "http://www.w3.org/Graphics/SVG/1.1/DTD/svg11.dtd">
<!-- Creator: CorelDRAW Home & Student X8 -->
<svg xmlns="http://www.w3.org/2000/svg" xml:space="preserve" width="151.563mm" height="142.973mm" version="1.1" style="shape-rendering:geometricPrecision; text-rendering:geometricPrecision; image-rendering:optimizeQuality; fill-rule:evenodd; clip-rule:evenodd"
viewBox="0 0 1241 1171"
 xmlns:xlink="http://www.w3.org/1999/xlink">
 <defs>
  <style type="text/css">
   <![CDATA[
    .str0 {stroke:#669999;stroke-width:8.18919}
    .fil1 {fill:#669999}
    .fil2 {fill:#CFE3E3}
    .fil4 {fill:#DADCDE}
    .fil3 {fill:#FAFDFD}
    .fil0 {fill:white}
   ]]>
  </style>
 </defs>
 <g id="Capa_x0020_1">
  <metadata id="CorelCorpID_0Corel-Layer"/>
  <path class="fil0" d="M31 117l-3 412c0,30 -7,93 11,118 5,7 113,6 131,12 15,5 56,0 88,11 48,17 18,10 68,14 8,1 57,10 76,8l62 -7c89,70 54,57 102,103 10,10 79,-12 27,-60 -12,-11 -13,-36 -51,-60 -11,-6 -11,1 -21,-13 -19,-29 14,-78 -10,-116 -8,-13 -7,-24 -24,-51 -4,-5 -49,-48 -50,-60l-5 -100 5 -105c3,-58 10,-48 -26,-101 -31,-47 -306,-9 -330,-8l-50 3z"/>
  <path class="fil1" d="M166 53l-35 0 -1 32c-52,0 -102,-9 -121,31 -14,29 -7,407 -7,455 0,54 -8,101 38,117 21,6 184,4 227,3 39,0 30,6 60,17 60,20 80,4 129,-10 27,23 114,122 130,121 13,-5 52,-45 56,-58 -7,-16 -48,-53 -61,-67 -14,-13 -54,-50 -61,-63 14,-48 25,-75 4,-128 -17,-44 -38,-54 -71,-81 -17,-318 54,-337 -126,-337l-3 -32c-55,0 -23,-1 -53,-34 -32,-35 -92,-21 -105,34zm-122 591l203 1c-27,-75 -42,-108 18,-191l-44 -2 0 -21c47,-6 64,10 101,-17l-101 -1 0 -21 136 -2 8 15 47 2 0 -282 -87 -1 0 32 -194 1 -2 -33 -84 1 -1 519zm310 -207c-164,31 -115,287 57,247 152,-35 112,-280 -57,-247zm-163 169l2 -5c4,-15 2,-53 2,-69 -16,20 -16,33 -18,62l-82 0 0 -80c14,-3 27,-2 42,-2 27,1 25,4 34,-17 -25,0 -70,-6 -91,4 -2,16 -6,100 2,108 7,8 61,4 82,4 15,0 18,2 27,-5zm1 -307c8,-15 4,-53 3,-74 -16,22 -16,32 -19,62l-81 0 0 -80c30,-5 59,8 74,-14 -11,-8 -29,-5 -44,-5 -16,0 -31,-2 -45,4 -2,14 -4,102 1,108 7,8 96,5 105,2l6 -3zm0 150c9,-16 4,-53 3,-74 -16,22 -16,31 -19,62l-81 0 0 -81c35,-6 61,11 76,-17 -21,-2 -73,-5 -91,2 -2,14 -4,103 1,109 3,4 1,2 8,4 2,1 84,4 100,-4 1,0 2,-1 3,-1zm29 -84l140 1 1 -7 0 -16 -141 0 0 22zm0 -60l140 1 2 -6 -1 -8 0 -8 -141 0 0 21zm0 -53c2,6 -2,11 30,11l75 -1c16,1 26,3 36,-6l0 -16 -131 0c-13,5 -7,-1 -10,12zm0 -38l141 1 0 -21 -141 -1 0 21zm306 511c9,16 41,43 55,59l25 -22c-15,-15 -45,-51 -62,-58l-18 21zm-241 -158c18,-16 -3,-72 77,-87 18,-4 11,3 19,-11 -11,-14 -27,-7 -42,-1 -50,17 -82,89 -54,99zm-141 -314l-39 -28c9,19 23,47 38,55 23,-8 51,-81 54,-101 -17,13 -43,50 -53,74zm0 150c-15,-9 -20,-18 -37,-25 6,18 24,45 36,52 13,-5 11,-6 18,-18 14,-24 30,-54 36,-81 -19,11 -46,53 -53,72zm-5 156l-34 -26c8,18 24,46 38,54 22,-8 50,-77 54,-101 -14,9 -33,37 -42,54 -9,15 -7,13 -16,19zm52 -506l15 0 40 0 16 -1c-14,-39 -59,-38 -71,1zm289 628l24 25c5,-4 8,-7 12,-10 0,-1 5,-6 5,-7 6,-7 1,2 5,-7l-23 -24 -23 23z"/>
  <g id="_330870968">
   <path class="fil2" d="M741 778c-47,46 -100,128 -153,167 -18,13 181,179 285,179 55,0 87,-15 123,-41 26,-20 89,-74 131,-114 6,-6 34,-35 32,-43 2,-14 -38,-102 -119,-147 -66,39 -141,77 -246,36l-53 -37z"/>
   <path class="fil1" d="M1135 378c-7,-26 0,-50 -24,-97 -16,-31 -30,-50 -50,-71 -34,-34 -103,-71 -176,-69 -92,2 -186,55 -225,139 -27,58 -16,60 -24,99 6,23 -35,25 -51,41 -15,108 -9,150 60,172 1,31 1,53 11,73 127,243 341,207 448,21 13,-22 3,-21 14,-92 40,-15 101,-83 60,-186 -6,-14 -31,-5 -46,-17 1,-5 2,-9 3,-13z"/>
   <path class="fil3" d="M672 403l50 0c3,24 -1,40 -4,62 -6,41 14,169 48,211l32 32c56,46 137,38 189,-7 32,-26 35,-31 56,-74 42,-89 20,-200 30,-226l24 -1c1,-8 1,-8 -1,-14 -27,0 -50,7 -63,-15 -16,-26 -18,-23 -45,-36 -7,15 -25,29 -40,40 -15,10 -41,18 -63,18 -68,1 -97,-52 -105,-58 -71,18 0,59 -110,49l2 19z"/>
   <path class="fil2" d="M672 403c1,50 0,99 1,149 1,59 3,73 28,119 56,101 188,152 298,79 69,-46 99,-112 98,-198 0,-50 -1,-102 0,-152l-24 1c-10,26 12,137 -30,226 -21,43 -24,48 -56,74 -52,45 -133,53 -189,7l-32 -32c-34,-42 -54,-170 -48,-211 3,-22 7,-38 4,-62l-50 0z"/>
   <path class="fil3" d="M675 348c11,4 25,8 36,7 17,-34 14,-28 54,-52 0,-44 -10,-44 14,-96 -31,10 -74,61 -89,94 -5,12 -16,34 -15,47z"/>
   <path class="fil0 str0" d="M768 445c-55,18 -33,103 23,87 18,-6 39,-30 32,-55 -5,-22 -27,-41 -55,-32z"/>
   <path class="fil0 str0" d="M984 444c-56,12 -40,101 18,89 49,-11 44,-103 -18,-89z"/>
   <path class="fil3" d="M1078 351c-12,-12 -16,-33 -20,-50 -5,-21 -16,-38 -12,-50 -8,-14 -37,-37 -52,-45 0,7 11,31 14,45 4,27 -2,33 -4,55 65,25 43,61 74,45z"/>
   <path class="fil1" d="M828 692c14,4 95,10 109,1 8,-5 12,-18 4,-26 -10,-9 -55,-4 -72,-4 -28,0 -53,-6 -41,29z"/>
   <path class="fil3" d="M1136 499c3,3 2,-3 3,4 5,-9 16,-13 26,-16 -1,-36 8,-66 -29,-71l0 83z"/>
   <path class="fil3" d="M605 482c8,4 17,9 23,12l6 -5 0 -74c-13,1 -26,9 -29,19 -2,7 0,38 0,48z"/>
   <path class="fil4" d="M1078 351l13 0c7,-23 -21,-69 -35,-89 0,-1 -3,-5 -3,-5l-7 -6c-4,12 7,29 12,50 4,17 8,38 20,50z"/>
   <path class="fil4" d="M634 489l-6 5c-6,-3 -15,-8 -23,-12 1,38 -7,68 29,76l0 -69z"/>
   <path class="fil4" d="M1136 499l-1 58c14,-2 27,-8 29,-19 2,-10 0,-39 1,-51 -10,3 -21,7 -26,16 -1,-7 0,-1 -3,-4z"/>
   <path class="fil0" d="M873 294c-19,0 -34,-16 -34,-35 0,-18 15,-34 34,-34 19,0 34,16 34,34 0,19 -15,35 -34,35zm0 5c-22,0 -40,-17 -40,-40 0,-22 18,-39 40,-39 22,0 40,17 40,39 0,23 -18,40 -40,40z"/>
   <circle class="fil0" cx="873" cy="259" r="23"/>
   <path class="fil0" d="M873 378c-11,0 -20,-9 -20,-20 0,-11 9,-20 20,-20 11,0 20,9 20,20 0,11 -9,20 -20,20zm0 -3c-9,0 -17,-8 -17,-17 0,-9 8,-17 17,-17 9,0 17,8 17,17 0,9 -8,17 -17,17z"/>
   <circle class="fil0" cx="873" cy="358" r="9"/>
   <rect class="fil0" x="868" y="298" width="10.4314" height="43.2463"/>
   <rect class="fil0" transform="matrix(6.02321E-14 -2.27424 1.10239 2.91964E-14 793.251 266.108)" width="4.58676" height="39.2295" rx="1" ry="1"/>
   <path class="fil0" d="M937 207c1,1 2,2 2,3l0 92c0,3 -3,5 -6,5l0 0c-2,0 -5,-2 -5,-5l0 -91 -17 -21 -26 0 0 -10 30 0 22 27 0 0z"/>
   <path class="fil0" d="M867 203c-10,0 -17,-7 -17,-17 0,-9 7,-17 17,-17 9,0 17,8 17,17 0,10 -8,17 -17,17zm0 3c-11,0 -20,-9 -20,-20 0,-11 9,-20 20,-20 11,0 20,9 20,20 0,11 -9,20 -20,20z"/>
   <circle class="fil0" cx="867" cy="186" r="9"/>
   <path class="fil0" d="M969 207c1,1 2,2 2,3l0 92c0,3 -3,5 -6,5l0 0c-2,0 -5,-2 -5,-5l0 -91 -17 -21 -26 0 0 -10 30 0 22 27 0 0z"/>
   <path class="fil0" d="M817 232c-7,0 -13,-7 -13,-14 0,-8 6,-14 13,-14 8,0 14,6 14,14 0,7 -6,14 -14,14zm0 2c-8,0 -16,-7 -16,-16 0,-9 8,-16 16,-16 9,0 16,7 16,16 0,9 -7,16 -16,16z"/>
   <circle class="fil0" cx="817" cy="218" r="7"/>
   <path class="fil0" d="M793 220l0 -4c0,-1 1,-3 3,-3l6 0c2,0 0,2 0,3l0 4c0,2 2,3 0,3l-6 0c-2,0 -3,-1 -3,-3z"/>
   <path class="fil1" d="M707 743c-59,56 -120,140 -187,187 -22,16 236,241 367,241 70,0 77,-28 122,-60 33,-23 139,-103 192,-151 8,-7 43,-42 40,-53 -8,-25 -163,-190 -183,-183 0,29 -125,98 -151,99 -57,2 -100,-2 -149,-41 -11,-9 -18,-35 -51,-39l0 0zm34 35c-47,46 -100,128 -153,167 -18,13 181,179 285,179 55,0 87,-15 123,-41 26,-20 89,-74 131,-114 6,-6 34,-35 32,-43 2,-14 -38,-102 -119,-147 -66,39 -141,77 -246,36l-53 -37z"/>
   <path class="fil1" d="M758 445c-35,18 -21,103 15,87 12,-6 25,-30 21,-55 -3,-22 -17,-41 -36,-32z"/>
   <path class="fil1" d="M971 444c-37,12 -26,101 13,89 32,-11 29,-103 -13,-89z"/>
  </g>
 </g>
</svg>
