<?xml version="1.0" encoding="UTF-8"?>
<!DOCTYPE svg PUBLIC "-//W3C//DTD SVG 1.1//EN" "http://www.w3.org/Graphics/SVG/1.1/DTD/svg11.dtd">
<!-- Creator: CorelDRAW Home & Student X8 -->
<svg xmlns="http://www.w3.org/2000/svg" xml:space="preserve" width="155.313mm" height="125.769mm" version="1.1" style="shape-rendering:geometricPrecision; text-rendering:geometricPrecision; image-rendering:optimizeQuality; fill-rule:evenodd; clip-rule:evenodd"
viewBox="0 0 15110 12236"
 xmlns:xlink="http://www.w3.org/1999/xlink">
 <defs>
  <style type="text/css">
   <![CDATA[
    .str0 {stroke:#669999;stroke-width:97.2865}
    .fil1 {fill:#669999}
    .fil0 {fill:#CFE3E3}
    .fil4 {fill:#DADCDE}
    .fil2 {fill:#FAFDFD}
    .fil3 {fill:white}
   ]]>
  </style>
 </defs>
 <g id="Capa_x0020_1">
  <metadata id="CorelCorpID_0Corel-Layer"/>
  <path class="fil0" d="M2631 7568c-556,553 -1188,1524 -1814,1980 -215,156 2148,2126 3390,2126 654,0 1036,-174 1459,-486 309,-228 1054,-877 1554,-1347 76,-71 411,-414 378,-515 25,-164 -443,-1214 -1408,-1745 -782,457 -1681,917 -2927,423l-632 -436z"/>
  <path class="fil1" d="M7316 2821c-85,-309 6,-592 -283,-1152 -194,-376 -357,-603 -593,-844 -400,-408 -1220,-843 -2091,-824 -1100,23 -2207,653 -2673,1651 -320,686 -191,716 -290,1172 69,283 -417,307 -603,496 -179,1274 -102,1781 712,2038 15,365 13,637 137,873 1503,2883 4041,2451 5319,244 149,-257 36,-250 164,-1087 475,-177 1195,-991 707,-2214 -66,-167 -360,-60 -541,-208 11,-49 22,-98 35,-145z"/>
  <path class="fil2" d="M1822 3118l589 -4c31,286 -10,477 -48,740 -69,479 161,2008 568,2504l385 384c664,542 1619,442 2247,-87 375,-316 417,-366 658,-874 505,-1066 245,-2387 363,-2693l285 -13c10,-88 12,-96 -19,-169 -318,10 -587,90 -748,-174 -186,-306 -212,-269 -528,-427 -86,181 -299,346 -483,475 -172,120 -482,213 -742,216 -815,10 -1156,-620 -1250,-688 -838,209 -1,693 -1300,580l23 230z"/>
  <path class="fil0" d="M1822 3118c2,590 -2,1175 6,1766 10,697 38,871 337,1413 658,1196 2230,1806 3531,945 826,-547 1179,-1336 1170,-2358 -6,-596 -18,-1214 3,-1809l-285 13c-118,306 142,1627 -363,2693 -241,508 -283,558 -658,874 -628,529 -1583,629 -2247,87l-385 -384c-407,-496 -637,-2025 -568,-2504 38,-263 79,-454 48,-740l-589 4z"/>
  <path class="fil2" d="M1848 2463c134,46 297,94 438,85 193,-410 159,-337 634,-617 0,-523 -123,-532 170,-1143 -372,111 -882,721 -1056,1114 -61,139 -191,403 -186,561z"/>
  <path class="fil3 str0" d="M2952 3617c-644,204 -389,1220 277,1027 219,-64 461,-349 387,-648 -67,-267 -327,-486 -664,-379z"/>
  <path class="fil3 str0" d="M5519 3596c-658,146 -467,1206 222,1058 582,-125 519,-1222 -222,-1058z"/>
  <path class="fil2" d="M6636 2494c-134,-140 -183,-392 -231,-593 -59,-244 -190,-446 -140,-595 -103,-164 -440,-432 -622,-529 -1,81 133,364 161,526 58,324 -25,396 -45,653 778,302 509,735 877,538z"/>
  <path class="fil1" d="M3672 6548c161,52 1131,112 1289,12 94,-59 152,-216 47,-313 -114,-106 -654,-46 -845,-46 -343,-2 -634,-69 -491,347z"/>
  <path class="fil2" d="M7330 4256c30,37 26,-42 35,46 57,-108 187,-157 304,-189 -4,-429 105,-786 -345,-849l6 992z"/>
  <path class="fil2" d="M1023 4048c93,49 196,109 267,148l72 -57 9 -877c-161,2 -315,98 -345,215 -23,93 -9,458 -3,571z"/>
  <path class="fil4" d="M6636 2494l160 2c84,-269 -253,-819 -414,-1054 -8,-12 -42,-62 -43,-63l-74 -73c-50,149 81,351 140,595 48,201 97,453 231,593z"/>
  <path class="fil4" d="M1362 4139l-72 57c-71,-39 -174,-99 -267,-148 7,461 -80,813 338,904l1 -813z"/>
  <path class="fil4" d="M7330 4256l-8 690c157,-30 317,-102 341,-227 21,-115 4,-466 6,-606 -117,32 -247,81 -304,189 -9,-88 -5,-9 -35,-46z"/>
  <path class="fil3" d="M4201 1815c-225,0 -406,-182 -406,-406 0,-224 181,-406 406,-406 224,0 405,182 405,406 0,224 -181,406 -405,406zm0 68c-262,0 -474,-212 -474,-474 0,-261 212,-473 474,-473 261,0 473,212 473,473 0,262 -212,474 -473,474z"/>
  <circle class="fil3" cx="4201" cy="1409" r="271"/>
  <path class="fil3" d="M4204 2817c-131,0 -237,-106 -237,-237 0,-131 106,-237 237,-237 131,0 237,106 237,237 0,131 -106,237 -237,237zm0 -34c-112,0 -203,-91 -203,-203 0,-112 91,-203 203,-203 112,0 203,91 203,203 0,112 -91,203 -203,203z"/>
  <circle class="fil3" cx="4204" cy="2580" r="101"/>
  <rect class="fil3" x="4142" y="1863" width="124" height="514"/>
  <rect class="fil3" transform="matrix(6.02321E-14 -2.27424 1.10239 2.91964E-14 3257.15 1487.62)" width="54.4902" height="466.041" rx="18" ry="18"/>
  <path class="fil3" d="M4969 784c10,11 16,25 16,41l0 1091c0,34 -28,62 -62,62l0 0c-34,0 -62,-28 -62,-62l0 -1083 -201 -249 -309 0 0 -124 347 0 271 324 0 0z"/>
  <path class="fil3" d="M4129 743c-112,0 -203,-91 -203,-203 0,-112 91,-203 203,-203 112,0 203,91 203,203 0,112 -91,203 -203,203zm0 34c-131,0 -237,-106 -237,-237 0,-131 106,-237 237,-237 131,0 237,106 237,237 0,131 -106,237 -237,237z"/>
  <circle class="fil3" cx="4129" cy="540" r="101"/>
  <path class="fil3" d="M5349 784c9,11 15,25 15,41l0 1091c0,34 -28,62 -62,62l0 0c-34,0 -62,-28 -62,-62l0 -1083 -201 -249 -309 0 0 -124 348 0 271 324 0 0z"/>
  <path class="fil3" d="M3544 1078c-90,0 -163,-73 -163,-163 0,-89 73,-162 163,-162 89,0 162,73 162,162 0,90 -73,163 -162,163zm0 27c-105,0 -190,-85 -190,-190 0,-104 85,-189 190,-189 104,0 189,85 189,189 0,105 -85,190 -189,190z"/>
  <circle class="fil3" cx="3544" cy="915" r="81"/>
  <path class="fil3" d="M3249 941l0 -44c0,-22 18,-40 40,-40l74 0c22,0 1,18 1,40l0 44c0,22 21,40 -1,40l-74 0c-22,0 -40,-18 -40,-40z"/>
  <path class="fil1" d="M2231 7150c-701,673 -1423,1668 -2214,2222 -271,190 2792,2864 4359,2864 826,0 908,-333 1442,-712 389,-277 1650,-1224 2281,-1795 95,-87 518,-503 477,-626 -100,-298 -1941,-2257 -2178,-2176 0,349 -1484,1169 -1787,1177 -680,19 -1188,-28 -1775,-492 -124,-99 -215,-415 -605,-462l0 0zm400 418c-556,553 -1188,1524 -1814,1980 -215,156 2148,2126 3390,2126 654,0 1036,-174 1459,-486 309,-228 1054,-877 1554,-1347 76,-71 411,-414 378,-515 25,-164 -443,-1214 -1408,-1745 -782,457 -1681,917 -2927,423l-632 -436z"/>
  <path class="fil1" d="M11369 418c-82,209 68,99 -478,212 -197,41 -375,94 -605,117 -288,28 -1268,-90 -1349,-48l-17 169 402 88c-56,208 -815,1629 -976,1947 -232,460 -282,655 82,1046 497,534 1528,578 2102,42 607,-567 150,-1048 -345,-2009 -110,-214 -428,-774 -482,-967 339,-40 602,-25 957,-82 269,-43 539,-144 838,-133l-259 3733c-299,74 -273,-85 -615,317l-72 193 1086 99 1122 -128c-5,-113 -91,-157 -209,-281 -184,-194 -151,-164 -497,-181l-280 -3740c382,-6 590,69 891,126 328,62 576,42 908,73 -17,170 -798,1614 -962,1932 -218,421 -236,639 121,1018 821,870 2897,225 2257,-988 -168,-319 -325,-631 -503,-975 -149,-287 -419,-744 -497,-1003 236,-163 396,70 365,-296 -178,-82 -748,64 -1025,62 -358,-2 -804,-142 -1019,-126l-376 -48c-90,-268 -236,-442 -493,-246l-72 77zm-2857 2759l1979 3c-18,-223 -830,-1662 -949,-1952 -90,54 -47,16 -110,93l-190 362c-153,295 -714,1328 -730,1494zm4284 -4l1997 6c-15,-129 -909,-1853 -999,-1961 -98,102 -987,1829 -998,1955z"/>
  <path class="fil1" d="M3190 3617c-418,204 -252,1220 180,1027 142,-64 299,-349 250,-648 -43,-267 -211,-486 -430,-379z"/>
  <path class="fil1" d="M5722 3596c-440,146 -312,1206 149,1058 388,-125 347,-1222 -149,-1058z"/>
 </g>
</svg>
