<?xml version="1.0" encoding="UTF-8"?>
<!DOCTYPE svg PUBLIC "-//W3C//DTD SVG 1.1//EN" "http://www.w3.org/Graphics/SVG/1.1/DTD/svg11.dtd">
<!-- Creator: CorelDRAW Home & Student X8 -->
<svg xmlns="http://www.w3.org/2000/svg" xml:space="preserve" width="143.763mm" height="162.544mm" version="1.1" style="shape-rendering:geometricPrecision; text-rendering:geometricPrecision; image-rendering:optimizeQuality; fill-rule:evenodd; clip-rule:evenodd"
viewBox="0 0 9044 10225"
 xmlns:xlink="http://www.w3.org/1999/xlink">
 <defs>
  <style type="text/css">
   <![CDATA[
    .fil1 {fill:#669999}
    .fil0 {fill:#CFE3E3}
    .fil5 {fill:#DADCDE}
    .fil6 {fill:#F6F6F6}
    .fil2 {fill:#FAFDFD}
    .fil3 {fill:white}
    .fil4 {fill:#669999;fill-rule:nonzero}
   ]]>
  </style>
 </defs>
 <g id="Capa_x0020_1">
  <metadata id="CorelCorpID_0Corel-Layer"/>
  <path class="fil0" d="M3387 4894c-360,357 -768,985 -1173,1280 -139,101 1389,1375 2192,1375 423,0 670,-113 944,-314 199,-148 681,-568 1004,-872 49,-45 266,-267 245,-333 16,-106 -287,-784 -911,-1128 -506,296 -1087,593 -1893,274l-408 -282z"/>
  <path class="fil1" d="M6416 1824c-55,-200 4,-383 -183,-745 -125,-243 -231,-390 -383,-545 -259,-264 -789,-546 -1352,-534 -711,15 -1428,423 -1729,1069 -206,443 -123,462 -188,757 45,183 -269,198 -389,321 -116,824 -66,1151 460,1318 10,236 9,411 89,564 972,1865 2613,1585 3439,158 97,-166 24,-162 107,-703 307,-115 772,-640 457,-1431 -43,-108 -233,-39 -350,-135 7,-32 14,-63 22,-94z"/>
  <path class="fil2" d="M2851 2010l381 -3c20,185 -7,309 -31,479 -45,309 104,1298 367,1619l249 248c429,351 1047,286 1453,-56 242,-204 270,-237 425,-566 327,-688 159,-1543 235,-1741l185 -8c6,-57 7,-62 -13,-109 -206,6 -379,58 -483,-113 -121,-197 -137,-174 -342,-276 -55,117 -193,224 -312,307 -111,78 -312,138 -480,140 -527,6 -748,-401 -808,-445 -542,135 -1,448 -841,375l15 149z"/>
  <path class="fil0" d="M2864 2016c1,382 -2,760 4,1142 6,451 24,563 217,914 426,773 1442,1167 2284,611 534,-354 762,-864 756,-1525 -4,-385 -11,-785 2,-1169l-184 8c-76,198 92,1052 -235,1741 -156,329 -183,361 -425,566 -406,342 -1024,406 -1453,56l-249 -248c-264,-322 -412,-1310 -368,-1620 25,-170 52,-294 32,-478l-381 2z"/>
  <path class="fil2" d="M2881 1593c86,29 192,61 283,55 124,-265 103,-218 410,-399 0,-339 -80,-344 109,-740 -240,72 -570,467 -682,721 -40,90 -123,261 -120,363z"/>
  <g>
   <path class="fil3" d="M3595 2339c-417,132 -252,789 179,664 141,-41 298,-226 250,-419 -44,-173 -212,-315 -429,-245z"/>
   <path id="1" class="fil4" d="M3765 2973l17 60 0 0 -42 10 -41 6 -40 1 -38 -3 -36 -7 -35 -11 -32 -15 -30 -17 -28 -21 -25 -23 -23 -26 -20 -27 -18 -29 -15 -31 -13 -32 -10 -33 -7 -34 -5 -34 -2 -35 1 -34 4 -35 7 -34 11 -34 13 -32 16 -32 20 -30 24 -28 26 -26 30 -24 34 -21 37 -18 40 -15 19 60 -34 12 -31 16 -28 17 -25 20 -22 21 -19 24 -16 24 -14 26 -11 27 -9 28 -6 29 -3 29 -1 30 2 29 4 29 6 29 8 28 11 27 13 26 15 25 17 23 19 21 20 18 23 17 24 14 26 12 27 9 30 5 31 3 33 -1 34 -5 37 -8 0 0zm228 -382l61 -15 0 0 4 20 3 20 2 20 1 20 -1 19 -1 19 -3 19 -4 19 -4 18 -6 18 -6 18 -7 17 -8 17 -9 16 -9 16 -10 16 -11 15 -11 14 -11 14 -12 14 -13 12 -13 13 -13 11 -14 11 -13 10 -14 10 -15 9 -14 8 -15 7 -15 7 -15 5 -15 5 -17 -60 12 -4 11 -5 12 -5 12 -6 12 -7 12 -7 12 -8 12 -9 12 -9 11 -10 11 -10 11 -11 10 -12 10 -12 10 -12 9 -13 8 -13 8 -14 8 -14 6 -14 6 -15 6 -15 4 -15 4 -15 3 -15 2 -16 2 -15 0 -16 -1 -16 -1 -16 -2 -16 -4 -17 0 0zm-389 -222l-19 -60 0 0 22 -7 21 -5 22 -3 21 -3 20 -1 21 -1 20 1 19 2 20 3 18 5 19 5 18 6 17 7 17 8 16 9 16 9 15 11 14 11 14 11 13 13 13 13 12 13 11 14 11 15 10 15 9 16 8 16 8 16 7 17 7 17 5 17 5 17 -61 15 -4 -14 -5 -15 -5 -14 -6 -14 -7 -14 -7 -13 -8 -13 -8 -13 -9 -12 -9 -12 -10 -12 -11 -10 -11 -11 -11 -9 -12 -9 -13 -9 -12 -8 -14 -7 -13 -6 -14 -6 -15 -5 -15 -4 -15 -4 -16 -2 -16 -2 -16 -1 -17 0 -17 2 -18 2 -18 3 -18 4 -19 6 0 0z"/>
  </g>
  <g>
   <path class="fil3" d="M5255 2325c-427,94 -303,780 143,684 376,-80 336,-790 -143,-684z"/>
   <path id="1" class="fil4" d="M5392 2979l13 61 0 0 -44 7 -42 3 -41 -2 -38 -6 -36 -10 -34 -14 -32 -17 -29 -20 -27 -23 -24 -25 -22 -28 -19 -29 -16 -31 -13 -33 -11 -33 -8 -34 -6 -35 -2 -35 0 -36 3 -35 6 -34 9 -35 13 -33 15 -32 19 -30 21 -29 26 -26 28 -24 32 -22 35 -18 38 -15 42 -11 13 61 -35 10 -32 12 -29 15 -26 18 -23 19 -21 22 -18 23 -15 25 -13 27 -10 27 -7 29 -6 30 -2 29 -1 31 3 30 4 30 7 29 10 28 11 28 14 26 16 25 17 23 20 20 22 19 24 17 25 13 28 11 29 9 32 5 33 1 36 -2 38 -6 0 0zm-131 -623l-13 -61 0 0 46 -8 44 -4 42 1 40 6 37 10 34 14 32 17 29 21 26 23 23 26 20 29 17 30 14 31 11 33 9 34 6 35 3 36 1 35 -2 36 -5 35 -7 35 -10 34 -13 33 -16 32 -18 30 -21 28 -24 26 -27 24 -30 21 -32 18 -35 14 -37 10 -13 -61 30 -9 28 -11 26 -14 24 -17 22 -19 19 -22 18 -23 15 -26 13 -26 11 -29 9 -29 6 -30 4 -30 2 -31 0 -31 -3 -30 -5 -30 -8 -29 -9 -28 -12 -27 -15 -25 -16 -23 -18 -21 -21 -18 -23 -17 -24 -13 -28 -11 -30 -8 -32 -5 -35 -1 -38 3 -41 7 0 0z"/>
  </g>
  <path class="fil2" d="M5976 1613c-86,-91 -118,-254 -149,-384 -38,-157 -122,-288 -90,-385 -67,-106 -285,-279 -402,-341 -1,52 85,235 104,339 37,210 -17,256 -30,423 503,195 330,475 567,348z"/>
  <path class="fil1" d="M4060 4234c104,34 731,73 833,8 61,-38 99,-140 31,-203 -74,-68 -423,-29 -547,-29 -221,-1 -409,-45 -317,224z"/>
  <path class="fil2" d="M6425 2752c20,24 17,-27 23,30 37,-70 121,-102 197,-122 -3,-278 68,-508 -223,-550l3 642z"/>
  <path class="fil2" d="M2347 2617c60,32 127,71 173,96l46 -36 6 -568c-104,1 -204,64 -223,140 -15,60 -6,295 -2,368z"/>
  <path class="fil5" d="M5976 1613l104 1c54,-174 -164,-529 -268,-682 -5,-7 -27,-40 -27,-40l-48 -48c-32,97 52,228 90,385 31,130 63,293 149,384z"/>
  <path class="fil5" d="M2566 2677l-46 36c-46,-25 -113,-64 -173,-96 4,299 -52,527 218,585l1 -525z"/>
  <path class="fil5" d="M6425 2752l-5 446c102,-19 205,-66 221,-147 14,-74 3,-301 4,-391 -76,20 -160,52 -197,122 -6,-57 -3,-6 -23,-30z"/>
  <path class="fil3" d="M4402 1174c-145,0 -263,-118 -263,-263 0,-145 118,-262 263,-262 145,0 262,117 262,262 0,145 -117,263 -262,263zm0 43c-169,0 -306,-137 -306,-306 0,-169 137,-306 306,-306 169,0 306,137 306,306 0,169 -137,306 -306,306z"/>
  <circle class="fil3" cx="4402" cy="911" r="175"/>
  <path class="fil3" d="M4404 1821c-85,0 -153,-68 -153,-153 0,-84 68,-153 153,-153 84,0 153,69 153,153 0,85 -69,153 -153,153zm0 -22c-73,0 -131,-58 -131,-131 0,-72 58,-131 131,-131 72,0 131,59 131,131 0,73 -59,131 -131,131z"/>
  <circle class="fil3" cx="4404" cy="1668" r="66"/>
  <rect class="fil3" x="4364" y="1205" width="80.1332" height="332.215"/>
  <rect class="fil3" transform="matrix(6.02321E-14 -2.27424 1.10239 2.91964E-14 3791.7 961.944)" width="35.2352" height="301.358" rx="11" ry="11"/>
  <path class="fil3" d="M4899 507c6,7 10,16 10,27l0 705c0,22 -18,40 -40,40l0 0c-22,0 -40,-18 -40,-40l0 -700 -130 -161 -200 0 0 -80 225 0 175 209 0 0z"/>
  <path class="fil3" d="M4355 480c-72,0 -131,-58 -131,-131 0,-72 59,-131 131,-131 73,0 132,59 132,131 0,73 -59,131 -132,131zm0 22c-84,0 -153,-68 -153,-153 0,-84 69,-153 153,-153 85,0 153,69 153,153 0,85 -68,153 -153,153z"/>
  <circle class="fil3" cx="4355" cy="349" r="66"/>
  <path class="fil3" d="M5144 507c6,7 10,16 10,27l0 705c0,22 -18,40 -40,40l0 0c-22,0 -40,-18 -40,-40l0 -700 -130 -161 -200 0 0 -80 225 0 175 209 0 0z"/>
  <path class="fil3" d="M3977 697c-58,0 -105,-47 -105,-105 0,-58 47,-105 105,-105 58,0 105,47 105,105 0,58 -47,105 -105,105zm0 17c-68,0 -122,-54 -122,-122 0,-68 54,-123 122,-123 68,0 122,55 122,123 0,68 -54,122 -122,122z"/>
  <circle class="fil3" cx="3977" cy="592" r="52"/>
  <path class="fil3" d="M3786 609l0 -29c0,-14 12,-26 26,-26l48 0c14,0 1,12 1,26l0 29c0,14 13,25 -1,25l-48 0c-14,0 -26,-11 -26,-25z"/>
  <path class="fil1" d="M3128 4624c-453,435 -920,1078 -1432,1437 -175,122 1806,1851 2819,1851 534,0 587,-215 933,-460 251,-179 1066,-792 1474,-1161 62,-56 336,-325 309,-405 -65,-192 -1255,-1459 -1408,-1406 0,225 -960,755 -1156,761 -439,12 -768,-19 -1148,-319 -80,-64 -139,-268 -391,-298l0 0zm259 270c-360,357 -768,985 -1173,1280 -139,101 1389,1375 2192,1375 423,0 670,-113 944,-314 199,-148 681,-568 1004,-872 49,-45 266,-267 245,-333 16,-106 -287,-784 -911,-1128 -506,296 -1087,593 -1893,274l-408 -282z"/>
  <path class="fil1" d="M4526 5923c-231,-275 -2311,-917 -3048,-988 -1176,-114 -929,37 -947,1080 -438,161 -531,468 -531,1037 0,348 25,667 317,876 386,275 138,-73 216,947 21,277 199,276 471,279 458,5 957,64 1380,161 398,90 816,230 1149,391 1475,711 524,678 1999,-10 778,-363 1659,-531 2540,-543 280,-3 427,-19 440,-309 47,-1051 -128,-652 233,-930 277,-213 299,-517 299,-862 0,-568 -93,-877 -531,-1037 -19,-1078 223,-1196 -994,-1076 -416,41 -2782,727 -2993,984z"/>
  <path class="fil3" d="M1064 6022c423,133 527,504 528,1030 0,253 -11,475 -121,654 -94,152 -168,203 -290,275 -160,94 -117,5 -116,643 2065,61 2973,814 3193,837l0 -3082c-838,-567 -1954,-894 -3193,-937l-1 580z"/>
  <path class="fil3" d="M4791 6379l-6 3082c68,-7 553,-256 673,-311 227,-103 484,-184 742,-262 545,-166 1172,-246 1777,-264 6,-780 51,-505 -211,-702 -71,-54 -134,-120 -193,-216 -152,-247 -315,-1456 407,-1684l0 -580c-1242,43 -2354,372 -3189,937z"/>
  <path class="fil6" d="M734 6515c-270,87 -201,280 -203,601 -1,250 52,522 361,421 215,-69 173,-359 173,-612 0,-238 -73,-494 -331,-410z"/>
  <path class="fil6" d="M8183 6519c-258,103 -203,275 -204,597 0,248 52,517 358,423 222,-68 175,-377 176,-613 1,-240 -62,-514 -330,-407z"/>
  <path class="fil1" d="M3595 2550c-417,91 -252,544 179,458 141,-29 298,-156 250,-289 -44,-119 -212,-217 -429,-169z"/>
  <path class="fil1" d="M5255 2541c-427,65 -303,537 143,471 376,-55 336,-544 -143,-471z"/>
 </g>
</svg>
