<?xml version="1.0" encoding="UTF-8"?>
<!DOCTYPE svg PUBLIC "-//W3C//DTD SVG 1.1//EN" "http://www.w3.org/Graphics/SVG/1.1/DTD/svg11.dtd">
<!-- Creator: CorelDRAW Home & Student X8 -->
<svg xmlns="http://www.w3.org/2000/svg" xml:space="preserve" width="154.94mm" height="132.79mm" version="1.1" style="shape-rendering:geometricPrecision; text-rendering:geometricPrecision; image-rendering:optimizeQuality; fill-rule:evenodd; clip-rule:evenodd"
viewBox="0 0 118924 101923"
 xmlns:xlink="http://www.w3.org/1999/xlink">
 <defs>
  <style type="text/css">
   <![CDATA[
    .fil0 {fill:#669999}
    .fil4 {fill:#CFE3E3}
    .fil2 {fill:#DADCDE}
    .fil1 {fill:#FAFDFD}
    .fil3 {fill:white}
   ]]>
  </style>
 </defs>
 <g id="Capa_x0020_1">
  <metadata id="CorelCorpID_0Corel-Layer"/>
  <g id="_584696376">
   <path class="fil0" d="M73478 16838l-269 17600c-2053,995 -25318,994 -27717,24l-68 -15623c-671,-6635 -7052,-7859 -12395,-8021 -1496,-8087 1,-8568 -12346,-8567 -9303,1 -12091,-836 -12066,9343 24,10227 925,10579 11059,10569 8790,-9 13227,1351 13134,-8528 12748,-1033 10656,10011 10180,20623 -3464,2183 -4406,1030 -6905,4825 -2193,3329 -1664,6311 -1641,10554l-10255 -27c303,-9825 -4262,-8577 -12571,-8580 -9649,-3 -11622,-388 -11618,9847 3,9992 1451,10068 11114,10059 8917,-8 12894,1380 13157,-8556l10137 -51c253,12387 1079,11453 8492,15168 295,2524 423,12774 -9,15092 -840,4506 -4819,6253 -10070,5633 19,-9687 -4093,-8450 -12642,-8452 -9734,-2 -11562,-423 -11561,9887 1,9960 1362,10034 11058,10025 8947,-8 13059,1515 13167,-8517 15201,-1103 12837,-7083 12900,-23783l27444 -33c-20,5473 -992,17360 1513,21177 4048,6170 9806,4277 17886,4800 448,9807 3173,8540 12706,8547 9538,7 11562,260 11547,-9697 -15,-10000 -1184,-10221 -11043,-10209 -9702,11 -12894,-1528 -13201,8576 -6378,335 -13157,995 -15785,-3617 -1481,-2599 -1202,-15649 -790,-19429 7914,-3770 8136,-3409 8514,-15154l10148 5c135,9622 4019,8584 12625,8588 9918,5 11616,316 11617,-10059 2,-9761 -1799,-9854 -11113,-9847 -8743,8 -13368,-1383 -13075,8534l-10205 68c-416,-14170 -2275,-11331 -8577,-15374 -246,-4097 -410,-12166 -33,-16144 501,-5286 4571,-7110 10171,-6623 54,9621 4152,8472 12653,8474 9908,3 11562,517 11553,-9881 -10,-9956 -1424,-10031 -11049,-10022 -8672,8 -13201,-1378 -13157,8531 -3680,236 -5787,53 -8639,1852 -1680,1060 -3611,3503 -3975,6393zm-31156 20765c-5993,2176 -5203,6216 -5200,12771 4,5985 -604,11847 4523,13792 2335,885 32376,980 35251,120 5249,-1572 4908,-7058 4906,-12905 -2,-6026 533,-11640 -4631,-13667 -2210,-868 -32588,-931 -34849,-111zm54814 47324c-2420,1088 -1839,3363 -1827,6234 11,2359 -523,6080 1105,7351 1492,1165 14072,1255 16104,348 2780,-1241 1945,-12286 584,-13460 -1446,-1249 -14098,-1313 -15966,-473zm242 -33546c12,7681 -592,7151 14493,6899 4012,-68 4428,-1015 4445,-4853 16,-3520 368,-6407 -853,-9161 -5957,-1115 -7246,-591 -13696,-552 -5354,0 -4397,3016 -4389,7667zm-90796 6871c16058,0 14944,1488 14958,-8382 3,-4205 224,-6059 -4343,-6187 -16176,-450 -14561,-345 -14574,7702 -8,4361 -687,6867 3959,6867zm99650 -41576c776,-565 888,-141 1315,-1754 206,-779 110,-1992 108,-2823 -14,-6714 1531,-9401 -5357,-9364 -13967,75 -13488,-2077 -13527,9392 -10,2811 -153,4463 2452,5032 2282,498 13592,413 15009,-483zm-80513 65796c-15822,-1 -14706,-1387 -14473,10237 115,5739 3801,4286 9437,4286 5601,0 9377,1429 9481,-4283 101,-5560 1471,-10239 -4445,-10240zm-14450 -73395c-1,12165 -316,10405 10422,10424 7884,14 8474,1004 8453,-6894 -20,-7542 392,-7750 -7445,-7706 -5531,31 -11429,-1757 -11430,4176zm34155 9762l68 15623c2399,970 25664,971 27717,-24l269 -17600c-1063,2442 -497,14539 -520,17442l-27031 78 36 -11683c8,-2061 164,-2253 -539,-3836z"/>
   <g>
    <path class="fil0" d="M73064 45651c-416,-1511 28,-2897 -1386,-5636 -949,-1839 -1745,-2946 -2901,-4126 -1955,-1995 -5965,-4123 -10226,-4033 -5379,114 -10797,3199 -13074,8080 -1564,3356 -933,3500 -1421,5731 340,1383 -2035,1500 -2945,2428 -877,6231 -500,8709 3479,9968 1352,2024 1678,6070 4105,8164 5883,6735 13021,6860 19035,952 2834,-3017 2889,-4349 4352,-8970 927,-346 2240,-212 3096,-1479 1291,-1907 1795,-5754 361,-9350 -325,-817 -1761,-296 -2647,-1019 53,-241 110,-478 172,-710z"/>
    <path class="fil1" d="M46193 47104l2881 -18c149,1398 -54,2332 -239,3621 -337,2339 836,9812 2828,12242l1884 1877c3246,2650 7873,2169 10941,-418 1834,-1546 2041,-1794 3219,-4280 2469,-5209 1199,-11671 1775,-13171l1396 -60c49,-432 56,-474 -95,-827 -1555,45 -2868,439 -3656,-853 -911,-1496 -1036,-1318 -2583,-2090 -420,885 -1464,1693 -2365,2324 -838,586 -2358,1040 -3628,1056 -3985,50 -5656,-3031 -6115,-3363 -4097,1022 -6,3389 -6360,2837l117 1123z"/>
    <path class="fil1" d="M46318 43903c657,222 1455,459 2141,414 943,-2005 781,-1648 3103,-3016 1,-2562 -601,-2605 829,-5595 -1820,546 -4313,3529 -5165,5453 -299,676 -931,1969 -908,2744z"/>
    <path class="fil0" d="M51719 49544c-3149,1001 -1903,5968 1355,5024 1072,-311 2255,-1708 1890,-3169 -326,-1305 -1598,-2378 -3245,-1855z"/>
    <path class="fil0" d="M64276 49443c-3223,712 -2285,5898 1086,5175 2842,-610 2539,-5976 -1086,-5175z"/>
    <path class="fil1" d="M69737 44052c-656,-683 -893,-1918 -1130,-2901 -287,-1191 -927,-2180 -682,-2911 -504,-803 -2153,-2110 -3044,-2585 -3,396 650,1779 789,2570 280,1587 -125,1938 -223,3195 3805,1477 2491,3595 4290,2632z"/>
    <path class="fil1" d="M73133 52672c147,182 124,-206 172,225 275,-529 911,-769 1486,-926 -21,-2099 514,-3842 -1687,-4153l29 4854z"/>
    <path class="fil1" d="M42281 51652c456,240 961,534 1307,724l352 -275 44 -4293c-785,9 -1541,480 -1686,1055 -114,454 -44,2238 -17,2789z"/>
    <path class="fil2" d="M69737 44052l785 11c408,-1315 -1239,-4005 -2026,-5156 -39,-58 -206,-303 -210,-310l-361 -357c-245,731 395,1720 682,2911 237,983 474,2218 1130,2901z"/>
    <path class="fil2" d="M43940 52101l-352 275c-346,-190 -851,-484 -1307,-724 34,2258 -392,3980 1653,4426l6 -3977z"/>
    <path class="fil2" d="M73133 52672l-41 3375c771,-150 1552,-501 1668,-1112 106,-560 23,-2279 31,-2964 -575,157 -1211,397 -1486,926 -48,-431 -25,-43 -172,-225z"/>
    <path class="fil3" d="M57825 40731c-1096,0 -1985,-889 -1985,-1985 0,-1096 889,-1985 1985,-1985 1096,0 1985,889 1985,1985 0,1096 -889,1985 -1985,1985zm0 331c-1279,0 -2316,-1037 -2316,-2316 0,-1279 1037,-2316 2316,-2316 1279,0 2316,1037 2316,2316 0,1279 -1037,2316 -2316,2316z"/>
    <circle class="fil3" cx="57825" cy="38746" r="1323"/>
    <path class="fil3" d="M57841 45630c-640,0 -1158,-518 -1158,-1158 0,-639 518,-1158 1158,-1158 640,0 1158,519 1158,1158 0,640 -518,1158 -1158,1158zm0 -165c-548,0 -993,-445 -993,-993 0,-548 445,-992 993,-992 548,0 993,444 993,992 0,548 -445,993 -993,993z"/>
    <circle class="fil3" cx="57841" cy="44472" r="496"/>
    <rect class="fil3" x="57540" y="40967" width="606" height="2513"/>
    <rect class="fil3" transform="matrix(3.73426E-14 -1.40998 0.68346 1.81011E-14 53210.5 39130.1)" width="430" height="3677" rx="138" ry="138"/>
    <path class="fil3" d="M61585 35688c48,54 77,124 77,201l0 5336c0,167 -137,303 -303,303l0 0c-167,0 -303,-136 -303,-303l0 -5295 -984 -1218 -1512 0 0 -606 1700 0 1325 1582 0 0z"/>
    <path class="fil3" d="M57474 35487c-548,0 -993,-444 -993,-992 0,-549 445,-993 993,-993 548,0 993,444 993,993 0,548 -445,992 -993,992zm0 166c-639,0 -1158,-519 -1158,-1158 0,-640 519,-1159 1158,-1159 639,0 1158,519 1158,1159 0,639 -519,1158 -1158,1158z"/>
    <circle class="fil3" cx="57474" cy="34494" r="496"/>
    <path class="fil3" d="M63441 35688c47,54 77,124 77,201l0 5336c0,167 -137,303 -304,303l0 0c-166,0 -303,-136 -303,-303l0 -5295 -983 -1218 -1513 0 0 -606 1701 0 1325 1582 0 0z"/>
    <path class="fil3" d="M54612 37125c-438,0 -794,-356 -794,-794 0,-439 356,-794 794,-794 439,0 794,355 794,794 0,438 -355,794 -794,794zm0 132c-512,0 -926,-415 -926,-926 0,-512 414,-926 926,-926 512,0 926,414 926,926 0,511 -414,926 -926,926z"/>
    <circle class="fil3" cx="54612" cy="36331" r="397"/>
    <path class="fil3" d="M53171 36457l0 -216c0,-107 87,-195 195,-195l363 0c107,0 4,88 4,195l0 216c0,107 103,195 -4,195l-363 0c-108,0 -195,-88 -195,-195z"/>
    <rect class="fil0" transform="matrix(1.31359E-14 -0.495979 0.746946 1.97823E-14 54736.2 62287.6)" width="4278" height="9849" rx="1963" ry="1963"/>
    <path class="fil4" d="M46268 47115c7,2885 -14,5750 27,8639 48,3407 186,4258 1648,6912 3220,5847 10908,8831 17273,4619 4041,-2674 5768,-6533 5721,-11531 -28,-2915 -87,-5939 17,-8847l-1397 61c-576,1499 695,7961 -1774,13171 -1178,2486 -1386,2734 -3219,4279 -3069,2587 -7744,3074 -10989,425l-1885 -1878c-1992,-2429 -3116,-9908 -2780,-12247 186,-1289 389,-2224 239,-3621l-2881 18z"/>
   </g>
  </g>
 </g>
</svg>
