<?xml version="1.0" encoding="UTF-8"?>
<!DOCTYPE svg PUBLIC "-//W3C//DTD SVG 1.1//EN" "http://www.w3.org/Graphics/SVG/1.1/DTD/svg11.dtd">
<!-- Creator: CorelDRAW Home & Student X8 -->
<svg xmlns="http://www.w3.org/2000/svg" xml:space="preserve" width="127.882mm" height="82.5726mm" version="1.1" style="shape-rendering:geometricPrecision; text-rendering:geometricPrecision; image-rendering:optimizeQuality; fill-rule:evenodd; clip-rule:evenodd"
viewBox="0 0 1433 925"
 xmlns:xlink="http://www.w3.org/1999/xlink">
 <defs>
  <style type="text/css">
   <![CDATA[
    .fil0 {fill:#297070}
    .fil1 {fill:#669999}
   ]]>
  </style>
 </defs>
 <g id="Capa_x0020_1">
  <metadata id="CorelCorpID_0Corel-Layer"/>
  <path class="fil0" d="M229 643l80 0c14,-215 273,-242 349,-78 10,22 12,53 20,72 19,8 51,6 76,7 3,-151 -118,-264 -263,-265 -102,1 -67,-10 -146,34 33,-85 192,-186 341,-111 60,30 106,73 134,119 48,77 38,118 41,221l79 2c5,-162 -14,-296 -158,-390 -92,-60 -237,-103 -336,-49 -59,38 -49,39 -84,58 21,-65 121,-138 198,-164 220,-75 484,69 487,361 0,44 -6,142 3,179l74 0c8,-37 4,-226 -3,-265 -33,-209 -239,-391 -440,-373 -176,16 -289,80 -364,183 -103,142 -92,262 -88,459z"/>
  <path class="fil1" d="M1266 919c17,-5 10,11 14,-22l0 -122c12,20 20,47 28,72 9,26 12,64 37,73 24,-12 42,-97 54,-127l6 8c12,35 -3,83 7,117l18 1 3 -182c-45,-5 -34,8 -55,65 -6,16 -10,25 -15,41l-10 26c-4,8 -4,7 -8,12 -1,-2 -2,-5 -3,-4 0,1 -2,-3 -2,-4 -15,-31 -34,-107 -50,-137l-33 -1 -1 144c-1,24 -6,32 10,40z"/>
  <path class="fil1" d="M547 919c35,-2 3,-9 26,-6 13,2 12,10 38,8 27,-2 43,-20 48,-44 17,-76 -27,-103 -91,-83 -1,-68 6,-56 -17,-59 -11,18 -7,153 -4,184zm39 -16c37,2 53,-7 54,-49 0,-39 -17,-53 -54,-50 -31,42 -28,60 0,99z"/>
  <path class="fil1" d="M208 794c-70,38 -17,168 64,120 61,-36 24,-169 -64,-120zm10 17c-44,32 -10,120 43,86 39,-25 12,-127 -43,-86z"/>
  <path class="fil1" d="M874 787c-79,19 -58,162 39,131 64,-20 51,-154 -39,-131zm-6 25c-43,38 -9,115 42,87 42,-24 12,-134 -42,-87z"/>
  <path class="fil1" d="M729 787c-79,22 -56,161 39,132 66,-20 48,-156 -39,-132zm42 111c19,-37 22,-57 -7,-93 -43,-5 -62,7 -59,55 3,45 32,49 66,38z"/>
  <path class="fil1" d="M12 919c15,-7 9,6 11,-22l0 -111c47,22 66,134 121,133l2 -151c0,-33 6,-31 -19,-33l-5 138c-22,-22 -60,-84 -81,-115 -13,-21 -12,-23 -39,-23l-2 167c5,26 -6,11 12,17z"/>
  <path class="fil1" d="M514 880c-41,-3 -17,27 -60,24 -24,-2 -38,-21 -33,-46l96 -1c-5,-106 -115,-88 -122,-14 -10,97 106,103 119,37zm-95 -40l75 0c-3,-40 -27,-35 -56,-38 -14,18 -17,11 -19,38z"/>
  <path class="fil1" d="M1137 898c1,-35 8,-138 -4,-164l-23 -1 -1 187c25,5 42,3 66,4 34,0 50,10 53,-22 -21,-13 -65,-7 -91,-4z"/>
  <path class="fil1" d="M987 920c18,-7 10,9 15,-23 2,-19 -2,-19 4,-37 47,-2 24,65 81,58l-52 -81 45 -47c-49,-3 -44,30 -79,45 0,-24 8,-83 -8,-100 -24,7 -14,13 -14,89 0,16 0,32 0,48 0,40 -2,35 8,48z"/>
  <path class="fil1" d="M319 793c1,2 3,1 3,4l8 11c10,23 -14,153 50,106 -10,-28 -4,1 -24,-24l-1 -73c4,-16 17,-8 23,-24l-23 -10 0 -40c-17,5 -14,2 -19,16 -10,25 3,17 -17,34z"/>
  <path class="fil1" d="M1137 898c-14,-21 -7,-101 -7,-130 0,-31 6,-27 -15,-30l0 177 107 1c-12,-36 -40,2 -85,-18z"/>
 </g>
</svg>
