<?xml version="1.0" encoding="UTF-8"?>
<!DOCTYPE svg PUBLIC "-//W3C//DTD SVG 1.1//EN" "http://www.w3.org/Graphics/SVG/1.1/DTD/svg11.dtd">
<!-- Creator: CorelDRAW Home & Student X8 -->
<svg xmlns="http://www.w3.org/2000/svg" xml:space="preserve" width="88.1774mm" height="125.769mm" version="1.1" style="shape-rendering:geometricPrecision; text-rendering:geometricPrecision; image-rendering:optimizeQuality; fill-rule:evenodd; clip-rule:evenodd"
viewBox="0 0 1439 2052"
 xmlns:xlink="http://www.w3.org/1999/xlink">
 <defs>
  <style type="text/css">
   <![CDATA[
    .fil1 {fill:#669999}
    .fil0 {fill:#CFE3E3}
    .fil3 {fill:#DADCDE}
    .fil2 {fill:#FAFDFD}
    .fil4 {fill:white}
   ]]>
  </style>
 </defs>
 <g id="Capa_x0020_1">
  <metadata id="CorelCorpID_0Corel-Layer"/>
  <path class="fil0" d="M441 1269c-93,93 -199,256 -304,332 -36,26 360,357 569,357 109,0 173,-30 244,-82 52,-38 177,-147 261,-226 12,-12 69,-69 63,-86 4,-28 -74,-204 -236,-293 -131,77 -282,154 -491,71l-106 -73z"/>
  <path class="fil1" d="M1227 473c-14,-52 1,-99 -48,-193 -32,-63 -59,-101 -99,-142 -67,-68 -205,-141 -351,-138 -184,4 -370,110 -448,277 -54,115 -32,120 -49,197 12,47 -69,51 -101,83 -30,213 -17,298 120,342 2,61 2,106 23,146 252,483 677,411 892,41 25,-43 6,-42 27,-182 80,-30 200,-167 119,-372 -11,-28 -61,-10 -91,-35 2,-8 4,-16 6,-24z"/>
  <path class="fil2" d="M306 523l98 -1c6,48 -1,80 -8,124 -11,81 27,337 95,420l65 65c111,90 272,74 377,-15 63,-53 70,-61 110,-147 85,-178 41,-400 61,-451l48 -2c2,-15 2,-16 -3,-29 -54,2 -99,15 -126,-29 -31,-51 -35,-45 -88,-72 -15,31 -50,59 -81,80 -29,20 -81,36 -125,36 -136,2 -194,-104 -209,-115 -141,35 -1,116 -218,97l4 39z"/>
  <path class="fil0" d="M306 523c0,99 -1,197 1,296 1,117 6,146 56,237 110,200 374,303 592,158 139,-91 198,-224 196,-395 -1,-100 -3,-204 1,-303l-48 2c-20,51 24,273 -61,451 -40,86 -47,94 -110,147 -105,89 -266,105 -377,15l-65 -65c-68,-83 -106,-339 -95,-420 7,-44 14,-76 8,-124l-98 1z"/>
  <path class="fil2" d="M310 413c22,8 50,16 73,14 33,-68 27,-56 107,-103 0,-88 -21,-89 28,-192 -62,19 -148,121 -177,187 -10,23 -32,68 -31,94z"/>
  <path class="fil1" d="M495 607c-108,34 -65,204 47,172 36,-11 77,-59 64,-109 -11,-45 -54,-81 -111,-63z"/>
  <path class="fil1" d="M926 603c-111,24 -79,202 37,177 97,-20 87,-204 -37,-177z"/>
  <path class="fil2" d="M1113 418c-23,-23 -31,-66 -39,-99 -10,-41 -32,-75 -23,-100 -18,-28 -74,-72 -105,-89 0,14 23,61 27,88 10,55 -4,67 -7,110 130,51 85,123 147,90z"/>
  <path class="fil1" d="M616 1098c27,9 189,19 216,2 16,-10 25,-36 8,-52 -19,-18 -110,-8 -142,-8 -57,0 -106,-12 -82,58z"/>
  <path class="fil2" d="M1229 714c5,6 4,-7 6,7 10,-18 31,-26 51,-31 -1,-72 18,-132 -58,-143l1 167z"/>
  <path class="fil2" d="M172 679c15,8 32,18 44,25l12 -10 2 -147c-27,0 -53,16 -58,36 -4,16 -1,77 0,96z"/>
  <path class="fil3" d="M1113 418l27 1c14,-46 -43,-138 -70,-177 -1,-2 -7,-11 -7,-11l-12 -12c-9,25 13,59 23,100 8,33 16,76 39,99z"/>
  <path class="fil3" d="M228 694l-12 10c-12,-7 -29,-17 -44,-25 1,77 -14,136 56,152l0 -137z"/>
  <path class="fil3" d="M1229 714l-1 115c26,-5 53,-17 57,-38 4,-19 1,-78 1,-101 -20,5 -41,13 -51,31 -2,-14 -1,-1 -6,-7z"/>
  <path class="fil4" d="M704 304c-37,0 -68,-30 -68,-68 0,-37 31,-68 68,-68 38,0 68,31 68,68 0,38 -30,68 -68,68zm0 12c-43,0 -79,-36 -79,-80 0,-44 36,-79 79,-79 44,0 80,35 80,79 0,44 -36,80 -80,80z"/>
  <circle class="fil4" cx="704" cy="236" r="45"/>
  <path class="fil4" d="M705 472c-22,0 -40,-17 -40,-39 0,-22 18,-40 40,-40 22,0 40,18 40,40 0,22 -18,39 -40,39zm0 -5c-19,0 -34,-16 -34,-34 0,-19 15,-34 34,-34 19,0 34,15 34,34 0,18 -15,34 -34,34z"/>
  <circle class="fil4" cx="705" cy="433" r="17"/>
  <rect class="fil4" x="695" y="312" width="20.7813" height="86.1547"/>
  <rect class="fil4" transform="matrix(6.02321E-14 -2.27424 1.10239 2.91964E-14 546.206 249.465)" width="9.13769" height="78.1525" rx="3" ry="3"/>
  <path class="fil4" d="M833 131c2,2 3,5 3,7l0 183c0,6 -5,11 -10,11l0 0c-6,0 -11,-5 -11,-11l0 -181 -34 -42 -51 0 0 -21 58 0 45 54 0 0z"/>
  <path class="fil4" d="M692 125c-18,0 -34,-16 -34,-34 0,-19 16,-34 34,-34 19,0 34,15 34,34 0,18 -15,34 -34,34zm0 5c-22,0 -39,-18 -39,-39 0,-22 17,-40 39,-40 22,0 40,18 40,40 0,21 -18,39 -40,39z"/>
  <circle class="fil4" cx="692" cy="91" r="17"/>
  <path class="fil4" d="M897 131c2,2 3,5 3,7l0 183c0,6 -5,11 -11,11l0 0c-6,0 -10,-5 -10,-11l0 -181 -34 -42 -52 0 0 -21 59 0 45 54 0 0z"/>
  <path class="fil4" d="M594 181c-15,0 -27,-12 -27,-28 0,-15 12,-27 27,-27 15,0 27,12 27,27 0,16 -12,28 -27,28zm0 4c-17,0 -32,-14 -32,-32 0,-17 15,-31 32,-31 18,0 32,14 32,31 0,18 -14,32 -32,32z"/>
  <circle class="fil4" cx="594" cy="153" r="14"/>
  <path class="fil4" d="M545 158l0 -8c0,-3 3,-6 7,-6l12 0c4,0 0,3 0,6l0 8c0,3 4,7 0,7l-12 0c-4,0 -7,-3 -7,-7z"/>
  <g id="_344725408">
   <path class="fil4" d="M918 1433c64,-42 107,-90 183,-61 115,44 112,180 57,230 -29,26 -155,108 -196,137 -39,26 -159,121 -193,131 -28,8 -58,9 -86,0 -26,-8 -58,-30 -76,-59 -29,-47 -30,-88 -12,-131 6,-15 15,-26 29,-39 24,-22 158,-110 197,-137 33,-23 63,-48 97,-71z"/>
   <g>
    <path class="fil1" d="M624 1641c-14,13 -23,24 -29,39 -18,43 -17,84 12,131 18,29 50,51 76,59 28,9 58,8 86,0 34,-10 154,-105 193,-131 41,-29 167,-111 196,-137 55,-50 58,-186 -57,-230 -76,-29 -119,19 -183,61 -34,23 -64,48 -97,71 -39,27 -173,115 -197,137zm199 138c2,-6 5,-14 -3,-23 -5,-5 -16,-6 -22,1 -3,5 -5,16 2,22 3,2 7,3 10,3 7,0 7,0 13,-3zm-126 22c-16,-25 -35,-7 -32,8 2,9 10,11 18,10 11,-3 11,-10 14,-18zm32 5c-14,22 17,32 24,20 11,-20 -17,-31 -24,-20zm-65 -52c-7,0 -12,-2 -20,5 -5,5 -6,15 2,21 9,7 38,-2 18,-26zm-15 -57c-9,17 18,31 27,14 9,-16 -18,-30 -27,-14zm115 86c-10,21 18,32 25,16 8,-20 -20,-28 -25,-16zm-85 -47c-2,6 -6,15 4,20 3,1 16,2 20,-5 10,-16 -19,-35 -24,-15zm86 27c1,-18 -3,-19 -19,-23 -24,17 0,40 19,23zm-23 -95c7,-20 -6,-37 -21,-23 -10,10 -2,31 21,23zm-55 22c41,18 27,-37 3,-22 -9,6 -6,13 -3,22zm26 73c-19,12 -12,34 6,29 17,-4 15,-23 -6,-29zm-89 -19c5,1 13,3 19,-6 3,-5 4,-15 -4,-20 -15,-10 -28,8 -15,26zm94 -13c8,1 12,2 21,-5 0,-14 -8,-29 -26,-17 -1,10 -3,12 5,22zm51 5c21,30 42,-9 10,-16 -10,7 -8,6 -10,16zm-2 -29c1,-18 -15,-34 -22,-18 -6,14 6,26 22,18zm303 -139c-13,23 14,31 23,21 16,-18 -17,-33 -23,-21zm21 -98c4,0 24,5 24,-14 1,-25 -43,-17 -24,14zm-74 4c0,-5 1,-15 -6,-20 -5,-3 -16,-3 -21,5 -9,14 6,32 27,15zm62 16c1,-4 3,-14 -3,-20 -5,-4 -15,-7 -22,0 -10,12 3,34 25,20zm26 53c-13,18 17,35 24,20 9,-18 -16,-31 -24,-20zm-55 -89c3,-6 6,-15 1,-21 -6,-7 -14,-8 -22,-2 -14,13 2,31 21,23zm63 31c-9,20 19,30 26,14 8,-18 -19,-30 -26,-14zm-97 14c-8,21 19,26 27,15 11,-17 -21,-32 -27,-15zm63 10c-9,21 17,31 25,14 7,-15 -18,-33 -25,-14zm-31 46c12,2 19,1 23,-14 -14,-28 -43,-10 -23,14zm15 -142c-13,19 15,26 23,16 12,-14 -11,-33 -23,-16zm-27 181c-9,18 18,32 23,17 7,-18 -16,-32 -23,-17zm-81 -111c-7,18 22,23 27,11 8,-13 -20,-30 -27,-11zm204 56l1 -3c1,-8 4,-12 -6,-20 -14,4 -19,13 -13,26 7,1 11,2 18,-3zm-132 12l-9 3c-3,37 40,20 9,-3zm-20 -14c6,-7 4,-13 -4,-22l-14 4c6,7 11,15 18,18zm-193 16c-19,21 -27,46 -25,67 2,31 5,46 34,74 38,36 109,32 140,-9 36,-49 32,-105 -9,-139 -17,-13 -45,-22 -67,-24 -23,-3 -54,10 -73,31z"/>
    <polygon class="fil1" points="855,1613 813,1640 845,1683 884,1654 911,1691 951,1663 925,1626 964,1601 932,1557 893,1583 868,1545 826,1574 "/>
   </g>
  </g>
  <path class="fil1" d="M374 1199c-117,113 -239,280 -371,373 -46,31 468,480 731,480 138,0 152,-56 242,-120 65,-46 276,-205 382,-301 16,-14 87,-84 80,-105 -17,-49 -325,-378 -365,-364 0,58 -249,196 -300,197 -114,3 -199,-5 -297,-83 -21,-16 -36,-69 -102,-77l0 0zm67 70c-93,93 -199,256 -304,332 -36,26 360,357 569,357 109,0 173,-30 244,-82 52,-38 177,-147 261,-226 12,-12 69,-69 63,-86 4,-28 -74,-204 -236,-293 -131,77 -282,154 -491,71l-106 -73z"/>
 </g>
</svg>
