<?xml version="1.0" encoding="UTF-8"?>
<!DOCTYPE svg PUBLIC "-//W3C//DTD SVG 1.1//EN" "http://www.w3.org/Graphics/SVG/1.1/DTD/svg11.dtd">
<!-- Creator: CorelDRAW Home & Student X8 -->
<svg xmlns="http://www.w3.org/2000/svg" xml:space="preserve" width="100.719mm" height="123.533mm" version="1.1" style="shape-rendering:geometricPrecision; text-rendering:geometricPrecision; image-rendering:optimizeQuality; fill-rule:evenodd; clip-rule:evenodd"
viewBox="0 0 4309 5285"
 xmlns:xlink="http://www.w3.org/1999/xlink">
 <defs>
  <style type="text/css">
   <![CDATA[
    .fil1 {fill:#669999}
    .fil3 {fill:#CFE3E3}
    .fil4 {fill:#DADCDE}
    .fil2 {fill:#FAFDFD}
    .fil0 {fill:white}
   ]]>
  </style>
 </defs>
 <g id="Capa_x0020_1">
  <metadata id="CorelCorpID_0Corel-Layer"/>
  <path class="fil0" d="M1044 2627l370 593c235,-183 484,-284 730,-305 -14,-3 -26,-10 -34,-23 23,5 182,-22 225,-25l-3 32c-12,7 -25,11 -39,13 255,12 502,111 716,296l358 -577 173 149c17,224 24,246 21,510 -1,109 -40,355 -122,382 3,145 -17,223 -83,330 -22,35 -108,142 -140,164 -41,27 -25,1 -40,59 -13,47 -40,103 -63,143 -12,20 -28,43 -40,60 -9,11 -15,20 -22,28 -195,230 -230,186 -251,202 -13,17 -21,35 -33,54 -44,66 -134,164 -191,219 -42,41 -54,50 -104,57 -29,88 -196,294 -263,297 -62,2 -182,-158 -211,-204 -12,-18 -42,-78 -51,-86 -14,-12 -36,-13 -52,-22 -15,-9 -26,-21 -38,-31 -81,-72 -131,-125 -192,-218 -40,-59 -26,-64 -69,-75 -46,-11 -54,-29 -83,-53 -106,-90 -179,-182 -239,-314 -21,-46 -21,-80 -41,-96 -13,-10 -27,-17 -41,-28 -118,-96 -199,-250 -212,-408 -7,-84 -9,-49 -40,-105 -53,-97 -80,-209 -83,-324 -7,-236 29,-369 32,-552l155 -142z"/>
  <path class="fil1" d="M4141 1457c13,19 17,39 21,62 4,22 8,44 15,65 34,9 60,15 101,23 -4,-136 -32,-242 -81,-364 -25,-60 -31,-48 10,-88 40,-40 80,-114 95,-191 11,-54 7,-86 -4,-139 -5,-19 -9,-35 -16,-53 -3,-9 -6,-18 -12,-27 -30,-53 -81,-10 -102,15 -23,28 -29,59 -47,86 -36,101 -10,139 -6,233 -25,-37 -49,-83 -73,-121 -30,-46 -62,-79 -92,-116 16,-38 39,-45 59,-108 27,-113 17,-183 -45,-270 -47,-66 -37,-25 -60,-67l-52 -7c-106,177 1,304 19,370l-230 -196c13,-108 55,-166 -17,-270 -31,-45 -37,-52 -81,-82 -31,-22 -70,-54 -117,-47 -29,53 -23,139 -2,197 26,70 65,90 90,137 -26,-4 -162,-101 -246,-126 0,-93 7,-168 -54,-226 -154,-150 -242,-99 -179,70 6,16 22,47 29,57 18,25 27,15 40,46l-176 -41c-27,-49 -18,-141 -123,-217 -142,-105 -408,-73 -306,66 27,36 52,61 90,88 65,46 222,56 257,93 -2,1 -5,0 -6,3 -4,9 -80,6 -112,12 -53,11 -269,101 -140,171 144,77 329,18 370,-100 79,4 154,29 226,53 86,29 126,49 189,88 -58,-22 -177,-29 -240,-8 -54,18 -142,76 -163,121 51,65 169,88 269,71 108,-18 162,-73 215,-129 63,7 128,56 173,86 38,25 128,89 144,128 -145,-63 -195,-70 -381,-13 19,82 113,148 189,165 138,30 190,-5 285,-55l47 55c43,54 103,127 128,195 -52,-37 -69,-67 -157,-89 -52,-12 -171,-1 -211,26 1,76 90,142 149,168 102,46 179,1 271,-16 15,43 54,170 50,216z"/>
  <path class="fil1" d="M480 710c-16,19 -11,23 -38,30 7,-35 -3,-20 20,-41 32,-82 47,-228 -18,-286 -33,-11 -40,-2 -66,19 -26,20 -32,25 -51,48 -13,23 -16,42 -38,58 0,35 -46,138 23,255 15,26 29,31 42,57 -106,112 -113,159 -142,198 -9,11 -6,6 -14,15 7,-162 1,-162 -50,-289l-25 -25c-30,-27 -20,-23 -54,-35 -75,43 -102,249 -14,383 16,24 22,24 40,44 74,78 35,20 -15,206 -15,55 -43,128 -39,184l6 22c1,-27 8,-33 17,-51 22,68 5,-22 36,83l8 -16c10,-15 -3,-7 13,-14 -1,13 -2,25 -1,37 0,2 3,20 4,22 5,15 3,8 9,16 7,-150 49,-263 89,-388 95,18 138,75 260,21 72,-32 141,-115 150,-174 -43,-21 -156,-33 -216,-25 -62,10 -127,55 -149,83 2,-31 137,-210 165,-241 39,12 200,151 403,6 20,-14 66,-74 75,-109 -45,-20 -140,-44 -199,-46 -84,-3 -133,29 -190,58 32,-70 247,-210 329,-235l14 24c85,169 348,149 449,53 -19,-43 -101,-103 -154,-124 -113,-46 -172,8 -232,-5 66,-28 118,-62 195,-86 69,-22 155,-45 230,-48 17,78 75,125 163,138 91,13 176,-14 239,-69 -23,-53 -121,-116 -177,-132 -14,-3 -29,-6 -45,-9l-42 -13c15,-19 16,-17 49,-22 22,-3 39,-4 60,-9 42,-10 72,-27 100,-47 33,-24 130,-112 96,-186 -38,-67 -218,-17 -267,15 -85,56 -111,116 -131,217l-197 46c70,-71 92,-153 80,-258 -84,-9 -146,46 -188,85 -68,65 -57,121 -54,221l-218 116c18,-56 123,-177 64,-319 -109,-1 -229,121 -245,249 -9,70 11,86 27,139l-9 8c-7,6 -7,6 -12,11 -14,13 -11,12 -24,22l-141 113z"/>
  <path class="fil1" d="M3509 1761c-37,-136 3,-261 -124,-507 -86,-165 -157,-265 -261,-371 -176,-179 -536,-370 -920,-362 -483,10 -970,287 -1175,726 -141,302 -84,315 -128,515 31,125 -183,135 -264,219 -79,560 -45,782 312,896 7,160 222,138 332,95 798,-307 1264,-147 1726,29 123,47 103,45 414,-111 209,-78 525,-436 311,-974 -30,-73 -159,-26 -238,-91 4,-22 10,-43 15,-64z"/>
  <path class="fil2" d="M1093 1891l259 -1c14,125 -4,209 -21,325 -30,211 75,882 254,1101l170 169c291,238 707,195 983,-38 165,-139 184,-161 290,-385 222,-468 107,-1049 159,-1184l126 -5c4,-39 5,-43 -9,-75 -140,5 -258,40 -329,-76 -82,-135 -93,-119 -232,-188 -38,80 -131,152 -212,209 -76,53 -212,93 -327,95 -358,4 -508,-273 -549,-303 -369,92 -1,305 -572,255l10 101z"/>
  <g>
   <path class="fil3" d="M1484 3081c-93,-317 -176,-705 -153,-866 17,-116 35,-200 21,-325l-259 1c1,260 -1,517 3,777 4,265 13,358 101,533 14,27 257,-126 287,-120zm1597 11c48,-141 232,-252 230,-424 -2,-262 -8,-534 2,-795l-126 5c-52,135 63,716 -159,1184l53 30z"/>
  </g>
  <path class="fil2" d="M1105 1604c59,20 130,41 192,37 85,-180 70,-148 279,-271 0,-231 -54,-234 75,-503 -164,49 -388,317 -465,490 -27,61 -83,177 -81,247z"/>
  <path class="fil1" d="M1590 2111c-283,90 -171,536 122,451 96,-28 203,-153 170,-284 -29,-118 -144,-214 -292,-167z"/>
  <path class="fil1" d="M2719 2102c-290,64 -205,530 98,465 255,-55 228,-537 -98,-465z"/>
  <path class="fil2" d="M3210 1617c-59,-61 -80,-172 -102,-261 -25,-107 -83,-196 -61,-261 -45,-73 -193,-190 -274,-233 0,36 59,160 71,231 26,143 -11,174 -20,287 342,133 224,324 386,237z"/>
  <path class="fil2" d="M3515 2392c13,16 11,-19 16,20 25,-47 82,-69 133,-83 -1,-189 47,-345 -151,-373l2 436z"/>
  <path class="fil2" d="M742 2300c41,22 86,48 117,65l32 -24 4 -386c-71,1 -139,43 -152,95 -10,40 -4,201 -1,250z"/>
  <path class="fil4" d="M3210 1617l71 1c36,-118 -112,-360 -183,-463 -3,-6 -18,-28 -18,-28l-33 -32c-22,65 36,154 61,261 22,89 43,200 102,261z"/>
  <path class="fil4" d="M891 2341l-32 24c-31,-17 -76,-43 -117,-65 3,203 -35,358 148,398l1 -357z"/>
  <path class="fil4" d="M3515 2392l-3 303c69,-13 139,-45 150,-100 9,-50 2,-204 2,-266 -51,14 -108,36 -133,83 -5,-39 -3,-4 -16,-20z"/>
  <path class="fil0" d="M2139 1319c-98,0 -178,-80 -178,-179 0,-98 80,-178 178,-178 99,0 179,80 179,178 0,99 -80,179 -179,179zm0 29c-115,0 -208,-93 -208,-208 0,-115 93,-208 208,-208 115,0 208,93 208,208 0,115 -93,208 -208,208z"/>
  <circle class="fil0" cx="2139" cy="1140" r="119"/>
  <path class="fil0" d="M2141 1759c-58,0 -105,-47 -105,-104 0,-58 47,-104 105,-104 57,0 104,46 104,104 0,57 -47,104 -104,104zm0 -15c-50,0 -90,-40 -90,-89 0,-49 40,-89 90,-89 49,0 89,40 89,89 0,49 -40,89 -89,89z"/>
  <circle class="fil0" cx="2141" cy="1655" r="45"/>
  <rect class="fil0" x="2113" y="1340" width="54.4924" height="225.914"/>
  <rect class="fil0" transform="matrix(6.02321E-14 -2.27424 1.10239 2.91964E-14 1724.32 1174.61)" width="23.9607" height="204.93" rx="8" ry="8"/>
  <path class="fil0" d="M2477 865c4,5 7,11 7,18l0 480c0,15 -12,27 -27,27l0 0c-15,0 -27,-12 -27,-27l0 -476 -89 -110 -136 0 0 -54 153 0 119 142 0 0z"/>
  <path class="fil0" d="M2108 847c-50,0 -90,-40 -90,-89 0,-49 40,-89 90,-89 49,0 89,40 89,89 0,49 -40,89 -89,89zm0 15c-58,0 -104,-47 -104,-104 0,-58 46,-104 104,-104 57,0 104,46 104,104 0,57 -47,104 -104,104z"/>
  <circle class="fil0" cx="2108" cy="758" r="45"/>
  <path class="fil0" d="M2644 865c4,5 7,11 7,18l0 480c0,15 -12,27 -27,27l0 0c-15,0 -28,-12 -28,-27l0 -476 -88 -110 -136 0 0 -54 153 0 119 142 0 0z"/>
  <path class="fil0" d="M1850 994c-39,0 -71,-32 -71,-71 0,-39 32,-71 71,-71 40,0 72,32 72,71 0,39 -32,71 -72,71zm0 12c-46,0 -83,-37 -83,-83 0,-46 37,-83 83,-83 46,0 84,37 84,83 0,46 -38,83 -84,83z"/>
  <circle class="fil0" cx="1850" cy="923" r="36"/>
  <path class="fil0" d="M1721 934l0 -19c0,-10 8,-18 17,-18l33 0c10,0 0,8 0,18l0 19c0,10 10,18 0,18l-33 0c-9,0 -17,-8 -17,-18z"/>
  <g>
   <path class="fil1" d="M889 2769c-3,183 -39,316 -32,552 3,115 30,227 83,324 31,56 33,21 40,105 13,158 94,312 212,408 14,11 28,18 41,28 20,16 20,50 41,96 60,132 133,224 239,314 29,24 37,42 83,53 43,11 29,16 69,75 61,93 111,146 192,218 12,10 23,22 38,31 16,9 38,10 52,22 9,8 39,68 51,86 29,46 149,206 211,204 67,-3 234,-209 263,-297 50,-7 62,-16 104,-57 57,-55 147,-153 191,-219 12,-19 20,-37 33,-54 21,-16 56,28 251,-202 7,-8 13,-17 22,-28 12,-17 28,-40 40,-60 23,-40 50,-96 63,-143 15,-58 -1,-32 40,-59 32,-22 118,-129 140,-164 66,-107 86,-185 83,-330 82,-27 121,-273 122,-382 3,-264 -4,-286 -21,-510l-173 -149 -358 577c-460,-395 -1067,-401 -1595,12l-370 -593 -155 142zm124 763c21,6 16,-11 21,-38 3,-18 6,-24 13,-43 15,-40 32,-94 81,-89 33,-2 31,26 30,44l-41 169c-9,87 -18,165 4,250 11,46 49,130 84,167 8,9 2,4 12,11l0 -31c-65,-65 -11,-324 55,-361 20,-46 36,-86 57,-132 11,-23 19,-40 31,-62l43 -62c-40,-13 -105,-82 -131,-116 -98,-124 -117,-152 -187,-317 -37,-87 -54,-171 -63,-191l-7 19c-1,6 -2,15 -2,22l-14 149c-6,122 -18,302 -8,419 5,48 26,156 22,192zm812 1211c11,-6 16,4 21,-48 2,-19 3,-39 4,-56 7,-97 16,-180 34,-275 1,-7 3,-20 6,-26 8,-23 -1,-9 13,-22 20,-67 61,-210 157,-198 14,61 -77,321 -52,573 9,85 28,188 60,257 32,68 52,92 91,146 14,18 25,26 37,43l23 -109c47,-183 89,-356 114,-544 12,-89 13,-160 20,-249 12,20 21,111 29,72 6,-49 -54,-158 -30,-197 48,-42 104,48 121,86 24,52 47,116 58,178 27,159 25,284 -6,435 21,-8 46,-39 57,-56 -17,-14 0,5 -24,-10 12,-39 0,25 12,-15 4,-13 -1,-7 -1,-32 -2,-39 31,-178 38,-225 17,-107 23,-216 23,-329 0,-95 -8,-232 -34,-318 -29,-98 -54,-161 -109,-242 10,-4 0,1 5,-16 -51,-37 -117,-82 -193,-110 -43,-16 -73,-32 -118,-13 -133,55 -220,67 -343,191l-66 89c-93,166 -131,358 -111,568 12,131 36,250 103,359 20,33 46,64 61,93zm757 10c16,-11 12,-10 25,-27 137,-181 175,-368 156,-609 -9,-121 -34,-233 -82,-328 -56,-111 -108,-153 -189,-223 -5,17 5,12 -5,16 55,81 80,144 109,242 26,86 34,223 34,318 0,113 -6,222 -23,329 -7,47 -40,186 -38,225 0,25 5,19 1,32 -12,40 0,-24 -12,15 24,15 7,-4 24,10zm-1096 -354l73 78c0,-50 -69,-266 -72,-333 -11,-240 106,-427 272,-596 136,-138 262,-238 453,-254 212,1 386,15 565,283 67,139 121,287 136,440l-44 416 37 12c201,-97 340,-613 141,-858l-108 -245c-13,-59 -159,-170 -213,-202 -79,-47 -196,-103 -301,-122 -299,-56 -663,83 -829,298 -34,44 -94,146 -116,201 -92,222 -123,456 -27,686l33 196zm710 738l10 22 69 -75c19,-29 36,-53 52,-84 100,-189 119,-453 67,-663l-12 -30c-8,39 -17,-52 -29,-72 -7,89 -8,160 -20,249 -25,188 -67,361 -114,544l-23 109zm-91 -1601c-49,4 -91,7 -101,48 -36,130 257,109 325,100 143,-21 109,-120 50,-141 -60,-22 -205,-13 -274,-7zm-280 1207c13,12 21,22 33,36 23,29 8,24 34,38 7,-16 2,-34 -1,-52 -3,-20 -6,-40 -8,-60 -5,-43 -7,-90 -7,-134 2,-93 18,-167 27,-255 -14,13 -5,-1 -13,22 -3,6 -5,19 -6,26 -18,95 -27,178 -34,275 -1,17 -2,37 -4,56 -5,52 -10,42 -21,48zm1556 -1850c15,-90 2,-108 7,-136l1 -27c-14,23 -16,69 -25,98l-114 260c-24,37 -101,150 -130,180 -11,11 -18,22 -29,34 -23,24 -39,36 -73,55 12,31 129,182 166,376 31,142 19,146 22,259 110,-65 105,-278 96,-390 -3,-51 -15,-341 63,-143 18,46 5,98 16,99 40,0 50,-333 48,-405 -2,-71 -10,-356 -41,-396 -5,28 8,46 -7,136l0 0zm-2334 558c-7,19 -10,25 -13,43l13 -43zm170 521c7,-156 13,-218 55,-361 -66,37 -120,296 -55,361zm893 -1080c20,34 67,24 112,24 39,-1 80,1 110,-17l3 -32c-43,3 -202,30 -225,25z"/>
  </g>
  <rect class="fil1" x="2073" y="2042" width="238" height="827" rx="109" ry="165"/>
  <g>
   <path class="fil1" d="M889 2769c-3,183 -39,316 -32,552 3,115 30,227 83,324 31,56 33,21 40,105 13,158 94,312 212,408 14,11 28,18 41,28 20,16 20,50 41,96 60,132 133,224 239,314 29,24 37,42 83,53 43,11 29,16 69,75 61,93 111,146 192,218 12,10 23,22 38,31 16,9 38,10 52,22 9,8 39,68 51,86 29,46 149,206 211,204 67,-3 234,-209 263,-297 50,-7 62,-16 104,-57 57,-55 147,-153 191,-219 12,-19 20,-37 33,-54 21,-16 56,28 251,-202 7,-8 13,-17 22,-28 12,-17 28,-40 40,-60 23,-40 50,-96 63,-143 15,-58 -1,-32 40,-59 32,-22 118,-129 140,-164 66,-107 86,-185 83,-330 82,-27 121,-273 122,-382 3,-264 -4,-286 -21,-510l-173 -149 -358 577c-460,-395 -1067,-401 -1595,12l-370 -593 -155 142zm124 763c21,6 16,-11 21,-38 3,-18 6,-24 13,-43 15,-40 32,-94 81,-89 33,-2 31,26 30,44l-41 169c-9,87 -18,165 4,250 11,46 49,130 84,167 8,9 2,4 12,11l0 -31c-65,-65 -11,-324 55,-361 20,-46 36,-86 57,-132 11,-23 19,-40 31,-62l43 -62c-40,-13 -105,-82 -131,-116 -98,-124 -117,-152 -187,-317 -37,-87 -54,-171 -63,-191l-7 19c-1,6 -2,15 -2,22l-14 149c-6,122 -18,302 -8,419 5,48 26,156 22,192zm812 1211c11,-6 16,4 21,-48 2,-19 3,-39 4,-56 7,-97 16,-180 34,-275 1,-7 3,-20 6,-26 8,-23 -1,-9 13,-22 20,-67 61,-210 157,-198 14,61 -77,321 -52,573 9,85 28,188 60,257 32,68 52,92 91,146 14,18 25,26 37,43l23 -109c47,-183 89,-356 114,-544 12,-89 13,-160 20,-249 12,20 21,111 29,72 6,-49 -54,-158 -30,-197 48,-42 104,48 121,86 24,52 47,116 58,178 27,159 25,284 -6,435 21,-8 46,-39 57,-56 -17,-14 0,5 -24,-10 12,-39 0,25 12,-15 4,-13 -1,-7 -1,-32 -2,-39 31,-178 38,-225 17,-107 23,-216 23,-329 0,-95 -8,-232 -34,-318 -29,-98 -54,-161 -109,-242 10,-4 0,1 5,-16 -51,-37 -117,-82 -193,-110 -43,-16 -73,-32 -118,-13 -133,55 -220,67 -343,191l-66 89c-93,166 -131,358 -111,568 12,131 36,250 103,359 20,33 46,64 61,93zm757 10c16,-11 12,-10 25,-27 137,-181 175,-368 156,-609 -9,-121 -34,-233 -82,-328 -56,-111 -108,-153 -189,-223 -5,17 5,12 -5,16 55,81 80,144 109,242 26,86 34,223 34,318 0,113 -6,222 -23,329 -7,47 -40,186 -38,225 0,25 5,19 1,32 -12,40 0,-24 -12,15 24,15 7,-4 24,10zm-1096 -354l73 78c0,-50 -69,-266 -72,-333 -11,-240 106,-427 272,-596 136,-138 262,-238 453,-254 212,1 386,15 565,283 67,139 121,287 136,440l-44 416 37 12c201,-97 340,-613 141,-858l-108 -245c-13,-59 -159,-170 -213,-202 -79,-47 -196,-103 -301,-122 -299,-56 -663,83 -829,298 -34,44 -94,146 -116,201 -92,222 -123,456 -27,686l33 196zm710 738l10 22 69 -75c19,-29 36,-53 52,-84 100,-189 119,-453 67,-663l-12 -30c-8,39 -17,-52 -29,-72 -7,89 -8,160 -20,249 -25,188 -67,361 -114,544l-23 109zm-91 -1601c-49,4 -91,7 -101,48 -36,130 257,109 325,100 143,-21 109,-120 50,-141 -60,-22 -205,-13 -274,-7zm-280 1207c13,12 21,22 33,36 23,29 8,24 34,38 7,-16 2,-34 -1,-52 -3,-20 -6,-40 -8,-60 -5,-43 -7,-90 -7,-134 2,-93 18,-167 27,-255 -14,13 -5,-1 -13,22 -3,6 -5,19 -6,26 -18,95 -27,178 -34,275 -1,17 -2,37 -4,56 -5,52 -10,42 -21,48zm1556 -1850c15,-90 2,-108 7,-136l1 -27c-14,23 -16,69 -25,98l-114 260c-24,37 -101,150 -130,180 -11,11 -18,22 -29,34 -23,24 -39,36 -73,55 12,31 129,182 166,376 31,142 19,146 22,259 110,-65 105,-278 96,-390 -3,-51 -15,-341 63,-143 18,46 5,98 16,99 40,0 50,-333 48,-405 -2,-71 -10,-356 -41,-396 -5,28 8,46 -7,136l0 0zm-2334 558c-7,19 -10,25 -13,43l13 -43zm170 521c7,-156 13,-218 55,-361 -66,37 -120,296 -55,361zm893 -1080c20,34 67,24 112,24 39,-1 80,1 110,-17l3 -32c-43,3 -202,30 -225,25z"/>
  </g>
 </g>
</svg>
